<?xml version="1.0" encoding="utf-8"?>
<!-- Generator: Adobe Illustrator 27.9.0, SVG Export Plug-In . SVG Version: 6.00 Build 0)  -->
<svg version="1.1" id="Layer_1" xmlns="http://www.w3.org/2000/svg" xmlns:xlink="http://www.w3.org/1999/xlink" x="0px" y="0px"
	 viewBox="0 0 300 300" style="enable-background:new 0 0 300 300;" xml:space="preserve">
<style type="text/css">
	.st0{fill:#FFFFFF;}
	.st1{fill:#F7C8C4;}
	.st2{fill:#FFF0EE;}
	.st3{fill:#F9F7F7;}
</style>
<g>
	<g>
		<path class="st0" d="M601,510c0,44.3,0,88.7,0,133c-341.3,0-682.7,0-1024,0c0-341.3,0-682.7,0-1024c341.3,0,682.7,0,1024,0
			c0,72,0,144,0,216c-1.1-1.4-2.4-2.7-3.2-4.3c-1.1-2-1.6-4.3-2.9-6.2c-2.4-3.5-5.2-6.7-8.1-10.3c0,8.6,0,17,0,25.4
			c-0.5,0-1,0-1.5,0c0-6.5,0.1-12.9,0-19.4c-1-40.1-30-68.3-70.2-68.3c-113.3,0-226.7,0.1-340,0.1c-171,0-342,0-513,0
			c-3.2,0-6.3,0.1-9.5,0.5c-33.4,3.7-58.9,34.3-58.3,65.6c0.6,32.7-0.1,65.3-0.1,98c0,169,0.1,338,0,507c0,19.2,7,35.5,20.2,49
			c4.8,4.9,10.5,9,16.1,13.8c-1.6-0.7-3-1.2-4.4-1.8c-0.3,0.5-0.7,1-1,1.5c6.6,5.1,13.7,9.8,19.8,15.5c13,12,29.6,15,45.8,17.4
			c18.2,2.8,36.8,2.9,55.2,3.7c12.3,0.5,24.7,0.1,37.1,0.2c7.8,0.1,15.6,0.5,23.4,0.5c11.9,0.1,23.8,0,35.7,0
			c10.4,0,20.8,0.3,31.3,0.2c8.1-0.1,16.3-0.8,24.4-0.6c12.7,0.3,25.4,1.5,38.1,1.7c24.1,0.3,48.3,0.1,72.4,0
			c14.3,0,28.5-0.2,42.8-0.2c15.2,0,30.5,0,45.7,0.1c13.6,0.1,27.3,0.5,40.9,0.8c8.6,0.2,17.1,0.6,25.7,0.7
			c18.2,0.2,36.5,0.1,54.7,0.2c8.6,0.1,17.1,0.4,25.7,0.5c10.2,0,20.3-0.3,30.5-0.3c10.6,0,21.1,0.2,31.7,0.3c0.8,0,1.6-0.4,2.4-0.4
			c4.8-0.2,9.6-0.5,14.4-0.4c7,0.1,13.9,0.5,20.9,0.6c7,0.1,14.1-0.1,21.1,0.1c12.1,0.3,24.3,1,36.4,1.1c14.2,0.1,28.4-0.2,42.6-0.5
			c10.1-0.2,20.1-0.7,30.2-1c1.6,0,3.3,0.4,4.9,0.6c1.8,0.2,3.6,0.6,5.4,0.6c9.4,0,18.7-0.1,28.1-0.1c7.1,0,14.1,0.7,21.2,0.4
			c8.1-0.4,16.1-1.9,24.2-2.3c11.3-0.5,21.8-3.3,31.5-9.4C593,513.4,597.1,511.9,601,510z"/>
		<path d="M601,510c-3.9,1.9-8,3.4-11.6,5.6c-9.7,6.1-20.1,8.9-31.5,9.4c-8.1,0.4-16.1,1.9-24.2,2.3c-7,0.3-14.1-0.3-21.2-0.4
			c-9.4-0.1-18.7,0.1-28.1,0.1c-1.8,0-3.6-0.4-5.4-0.6c-1.6-0.2-3.3-0.7-4.9-0.6c-10.1,0.3-20.1,0.8-30.2,1
			c-14.2,0.3-28.4,0.6-42.6,0.5c-12.1-0.1-24.3-0.8-36.4-1.1c-7-0.2-14.1,0.1-21.1-0.1c-7-0.1-13.9-0.6-20.9-0.6
			c-4.8-0.1-9.6,0.2-14.4,0.4c-0.8,0-1.6,0.4-2.4,0.4c-10.6-0.1-21.1-0.3-31.7-0.3c-10.2,0-20.3,0.3-30.5,0.3
			c-8.6,0-17.1-0.4-25.7-0.5c-18.2-0.1-36.5-0.1-54.7-0.2c-8.6-0.1-17.1-0.5-25.7-0.7c-13.6-0.3-27.3-0.7-40.9-0.8
			C81.8,524,66.5,524,51.3,524c-14.3,0-28.5,0.2-42.8,0.2c-24.1,0.1-48.3,0.3-72.4,0c-12.7-0.1-25.4-1.4-38.1-1.7
			c-8.1-0.2-16.2,0.6-24.4,0.6c-10.4,0.1-20.8-0.2-31.3-0.2c-11.9,0-23.8,0.1-35.7,0c-7.8-0.1-15.6-0.5-23.4-0.5
			c-12.4-0.1-24.8,0.4-37.1-0.2c-18.4-0.8-37.1-1-55.2-3.7c-16.2-2.5-32.8-5.4-45.8-17.4c-6.1-5.7-13.2-10.4-19.8-15.5
			c0.3-0.5,0.7-1,1-1.5c1.4,0.6,2.7,1.1,4.4,1.8c-5.6-4.8-11.3-8.8-16.1-13.8c-13.2-13.6-20.2-29.8-20.2-49c0-169,0-338,0-507
			c0-32.7,0.7-65.3,0.1-98c-0.6-31.3,24.8-61.9,58.3-65.6c3.1-0.3,6.3-0.5,9.5-0.5c171,0,342,0,513,0c113.3,0,226.7,0,340-0.1
			c40.2,0,69.2,28.1,70.2,68.3c0.2,6.5,0,12.9,0,19.4c0.5,0,1,0,1.5,0c0-8.4,0-16.8,0-25.4c2.9,3.7,5.7,6.9,8.1,10.3
			c1.3,1.8,1.8,4.2,2.9,6.2c0.9,1.5,2.1,2.8,3.2,4.3C601,60,601,285,601,510z M146.8,319.1c1.7,0.7,3.3,1.9,5,1.9
			c12.9,0.2,25.9,0.2,38.8,0.2c1.3,0,2.7-0.3,4.9-0.5c-7.4-7.3-13.8-14-20.6-20.4c-2.3-2.2-5.3-2.2-7.8,0.3
			c-4.4,4.3-8.8,8.6-13.3,12.8c-2.3,2.1-4.8,3.8-7.2,5.7c6-6,11.9-12.1,17.9-18c5.6-5.5,5.6-5.4-0.1-11.2c-3.3-3.4-6.5-7-9.7-10.6
			c2.8,2.5,5.7,5,8.5,7.6c8.5,7.9,7.3,9.1,16.2,0c2.1-2.1,4.3-4.1,6.5-6.2c3.7-3.7,7.4-7.3,11.1-11c-0.2-0.6-0.3-1.1-0.5-1.7
			c-16.9,0-33.8,0-50.7,0c4.4-0.3,8.9-0.7,13.3-0.8c12.6-0.1,25.2,0,39,0c-1-5.3-1.6-10-3-14.5c-1.5-5.1,1.6-9.3,2-13.8
			c1-11.5,0.3-23.2,0.3-35.2c-17,0-33.3,0-49.6,0c-3.2,0-3.2,2.2-3.2,4.5c0,18.5,0,37,0.1,55.5c0,1.4,0.7,2.8,1.1,4.1
			c0.4,1.6,0.8,3.1,1.2,4.7c-0.8,1.6-2.3,3.2-2.3,4.9c-0.2,12.3-0.1,24.6,0,36.9C145,316,146.1,317.5,146.8,319.1z M28.2,196.6
			c-5.6-5.5-11.2-10.9-16.7-16.4c-3.1-3.1-5.8-3-8.8,0.3c-6,6.5-12.2,12.7-18.1,19.2c-0.8,0.9-0.9,2.4-1.3,3.7
			c-0.7,1.6-2.1,3.1-2.1,4.7c-0.1,13.5,0,27,0,40.4c0,6.1,0,12.2,0,18.9c16.3,0,31.9,0,47.5,0c0,0.4,0,0.8,0,1.2
			c-15.5,0-31,0-45.8,0c5.6,6.2,11.3,12.5,17,18.7c8.6,9.2,7.7,8.9,16.6,0c4.9-4.9,10-9.6,14.9-14.5c-1.3,1.7-2.5,3.5-4,5.1
			c-4.8,5.1-9.7,10.1-14.6,15.1c-2,2-2.7,3.9-0.2,6.3c5.8,5.5,11.3,11.2,17,16.8c0.9,0.9,2.1,1.6,4.3,3.2c0-16,0-30.6-0.1-45.1
			c0-0.6-1.4-1.2-2.1-1.8c0.8-4.4,2.3-8.8,2.4-13.2c0.2-16.5-0.2-33,0-49.5c0.1-4.7-1.1-6.2-6.1-6.1c-15,0.3-30-0.1-44.9-0.3
			c8.4-0.3,16.8-0.6,25.3-0.7c7.7-0.1,15.5,0,24,0c-1.8-2.6-2.9-4.1-4.1-5.7c1.7,1.1,3.4,2.1,5.7,3.6c0-17,0-33.2-0.1-49.4
			c0-0.6-0.8-1.3-1.2-1.9c-1.1-8-8-11.8-12.6-17.2c4.3,3.3,8.6,6.7,13.8,10.8c0-16.8,0-32.4,0-48c0-3.4-2.3-3-4.5-3
			c-10.8,0-21.6,0.2-32.4-0.1c-4.4-0.1-7.7,1.4-10,4.5c2.8,3.7,5.5,7.4,8.2,11c-3-3.3-6-6.6-9.1-9.9c-0.7,0.1-1.3,0.1-2,0.2
			c-1,2.7-2.8,5.3-2.9,8c-0.4,10.8-0.2,21.6-0.2,32.4c0,5.3-0.1,10.6,4.6,14.4c-1.4-0.6-2.8-1.2-4.2-1.8c0,16.7,0,33,0,50.5
			c7.7-8.2,14.8-15.4,21.4-23.1c1-1.2,0.5-4.5-0.4-6.3c-1.5-3.1-4-5.7-6-8.4c4.6,3.2,6.8,9.8,13.8,9.7c-0.8,3.1,0.8,5.1,2.9,7.3
			C18.4,185.4,23.3,191.1,28.2,196.6z M39.6,265.9c0.9-1.5,1.6-3.2,2.9-4.5c6-6,12-12,18.2-17.8c2.9-2.7,3-5.1,0.5-8.1
			c-4.2-4.9-8.2-10-12.4-15c-4.2-5-8.6-9.9-13.9-15.9c0,10,0,18.4,0,26.8c0,10.1-0.1,20.3,0,30.4c0,3.2,0.8,5.9,5,3.9
			c0.4,0.5,0.8,1.5,1.2,1.5c15.1,0.1,30.3,0.1,46.7,0.1c-1.2-2.4-1.5-4.2-2.6-5.3c-5.3-5.7-10.9-11.2-16.3-16.9
			c-2.7-2.8-4.8-2.7-7.5,0C54.2,252.2,46.9,259,39.6,265.9z M151,470.9c1.9,1,3.8,2.7,5.7,2.8c14.8,0.2,29.5,0.1,44.3,0
			c1.2,0,2.4-0.3,3.9-0.5c-1.4-2.5-2.6-4.5-3.8-6.4c3.4,5.3,7.9,8.1,14.5,7c1.9-0.3,4,0,6-0.1c13-0.3,26.1-0.9,39.1-0.9
			c13.2,0,26.5,0.5,39.7,0.9c2.9,0.1,4.3-0.7,4.2-3.8c-0.2-4.3-0.3-8.6-0.1-12.9c0.1-3.1-1.1-4.1-4.1-4c-8.2,0.1-16.4-0.1-24.6,0
			c-13.5,0.1-26.9,0.5-40.4,0.5c-13.6,0-27.3-0.4-40.9-0.4c-1.2,0-2.4,1.3-3.5,2c-1-1.2-2-2.5-2.9-3.7c-0.6-0.3-1.1-0.5-0.8-0.4
			c2,0.3,4.7,1.1,7.5,1.1c14.6,0.1,29.1,0,43.7,0c20.3,0,40.6,0.1,60.9,0.1c1.6,0,3.2-0.2,5-0.3c0-2.9,0-5.2,0-7.5
			c-0.1-8.1-0.4-16.3-0.2-24.4c0.2-8.4,0.5-8.5-7.7-10.9c-21.2-6.3-42.3-12.7-63.6-18.6c-5.8-1.6-12-2-18.1-2.2
			c-9.5-0.2-18.9,0.4-28.4,0.3c-12.3-0.1-24.6-0.6-36.9-0.7c-10.3-0.1-20.6,0-30.8,0c6.8-0.9,13.6-1.1,20.4-0.9
			c3.8,0.1,5-1.3,4.9-4.9c-0.2-5.9-0.1-11.7-0.1-17.6c1,5.7,1.2,11.4,0.9,17.1c-0.2,4,1,5.6,5.3,5.5c14-0.2,28,0,42,0.1
			c1.8,0,3.5-0.2,5.4-0.4c0-7.2,0-13.9,0-21.1c-16.2,0-32,0-47.8,0c14.3-0.6,28.7-0.5,43-0.6c2.8,0,5.2,0,5.1-4.1
			c-0.2-11.3-0.1-22.7,0.2-34c0.1-4.1-1.7-5.3-5.3-5.3c-8.5,0-17-0.4-25.5,0.1c-7.5,0.4-15.3-2.3-22.5,1.8c-0.4,0.2-1.2-0.4-1.8-0.6
			c-2.4-0.5-4.8-1.3-7.2-1.3c-15.3-0.2-30.6-0.1-46-0.2l0,0.1c1.6-0.2,3.3-0.5,4.9-0.5c14,0,27.9,0,41.9,0c1.4,0,2.8-0.2,5.2-0.3
			c-1-1.9-1.4-3.4-2.3-4.3c-15.4-15.4-30.8-30.8-46.5-46c-1.1-1.1-5-1-6.1,0.1c-15.6,15.2-31,30.7-46.3,46.1
			c-1.1,1.1-1.8,2.4-3.4,4.5c7.9,0,14.5-0.1,21.2,0c10.3,0.1,20.6,0.3,30.8,0.5l0-0.2c-15.8,0-31.6,0.1-47.4,0.1c-6,0-6.9,0.9-7,6.9
			c0,10.5,0.2,21,0,31.4c-0.1,4.2,1.5,5.4,5.5,5.3c14.3-0.2,28.6,0,42.9-0.1c1.9,0,3.9-0.4,6-0.6c0-3.3,0-6.1,0-8.9
			c0.1-11.3,0.2-22.6,0.3-33.8l0.1,0c0.2,14.6,0.4,29.1,0.6,43.7c-14.8,0-30.5-0.1-46.1,0c-10.8,0.1-9-1-9.2,8.9c0,2.7,0.1,5.3,0,8
			c-0.2,3.1,0.9,4.5,4.2,4.5c15.3-0.1,30.6-0.1,46,0.1c3.3,0,4.4-1.3,4.2-4.5c-0.2-4.5-0.1-9.1-0.1-13.6c0.7,4.3,0.8,8.6,0.6,13
			c-0.2,3.8,0.9,5.4,5.1,5.2c6.4-0.3,12.9-0.1,19.3-0.1c-6.3,0.7-12.6,0.7-18.9,0.7c-6.3,0-12.6,0.1-18.9-0.1
			c-5.8-0.2-11.6,0.8-17.5,0.4c-10.7-0.6-21.5-0.2-32.3-0.2c-17,0-34,0.1-50.9,0c-11-0.1-21.9,0.1-32.6,3.6
			c-11.2,3.7-22.6,6.9-34.1,9.7c-4.5,1.1-5.2,3.3-5.2,7.3c0.1,15.7-0.1,31.5-0.2,47.2c0,5.9,0,11.8,0,18.5
			c5.8-0.5,10.7-1.3,15.6-1.2c13.1,0.1,26.2,0.1,39.2,0.9c8.7,0.5,16.1-0.7,21-8.7c0.1-0.1,0.5,0,1,0c-2.2,2.6-4.4,5.1-6.9,8.1
			c1.3,0.3,1.8,0.5,2.2,0.5c15.5,0,31,0.1,46.5-0.1c1.3,0,2.5-1.1,3.8-1.7c1.4,0.6,2.7,1.7,4.1,1.7c16.5,0.1,33,0,49.4,0
			c3,0,5.9,0,9.1,0c0-7,0-13.6,0-20.2c-1.3-0.2-2.3-0.4-3.3-0.4c-15.3,0-30.6,0-45.9-0.1c-3.5,0-5.1,1.9-6.3,4.7
			c1.7-4-0.7-4.6-3.8-4.6c-11.3,0-22.5,0-33.8,0c11.7-0.9,23.3-0.8,35-0.9c1.5,0,3.8-0.3,4.4-1.3c2.6-4.7,4.8-9.6,7.5-15.1
			c-11.4,0-21.6,0-31.9,0c9.3-0.4,18.7-0.4,28-0.3c2.9,0,5.3-0.6,6.3-3.7c0-0.1,0.4-0.2,0.6-0.3c-0.1,1.2-0.3,2.3-0.5,3.7
			c5,0,9.7,0,14.3,0c-4.2,0.5-8.3,0.4-12.5,0.5c-1.4,0.1-3.4,0.5-3.9,1.4c-2.5,4.6-4.5,9.5-6.9,14.7c18,0,35.4,0,53.1,0
			c0-20.7,0-41,0-61.2c0.7,6.9,0.7,13.8,0.7,20.8c0,7.1-0.4,14.3,0.2,21.4c0.6,6.4-1.7,12.7,0.3,19.3c0.9,0.1,1.9,0.2,2.9,0.2
			c29.8,0,59.7-0.1,89.5-0.1c1.8,0,3.6-0.5,5.4-0.7c-2,0.5-4,1.4-6.1,1.5c-11.1,0.1-22.2,0-33.4,0.1c-1.6,0-4.4-1-4,2.5
			c-1.6-0.8-3.1-2.4-4.7-2.4c-15.7-0.2-31.3-0.2-47-0.1c-1.1,0-2.9,1.7-3,2.7c-0.3,5.8-0.1,11.6-0.1,16.9c0.7,0.5,0.8,0.7,1,0.7
			c19.3,0.1,38.6,0.2,57.9,0.1C149.5,473.5,150.2,471.8,151,470.9z M439.2,451.7c-1.1-0.4-2.1-0.9-3.2-1.3
			c-40-11.9-80-23.8-120-35.6c-2.9-0.9-6-1.5-9.2-2.3c0,13.6,0,26.4,0,39.4c3.8,0,7.1,0,11,0c-1-1.1-1.7-1.8-1.9-1.9
			c2.8,0.7,6.1,2.2,9.4,2.3c16.7,0.2,33.5,0,50.2,0c19.5,0,39,0,58.4,0c1.8,0,3.6-0.4,5.4-0.6c-2.2,0.4-4.5,1.1-6.7,1.2
			c-22.7,0.1-45.4,0.1-68.1,0.1c-16.2,0-32.4,0-48.7,0.1c-2.2,0-4.4-0.1-6.5,0.2c-0.9,0.1-2.3,0.9-2.5,1.7
			c-3.6,9.8,2.6,18.8,13,18.7c13.8,0,27.6-0.4,41.4-0.4c20.6,0,41.2,0.4,61.8,0.5c26.8,0.1,53.6,0,80.4,0c2.6,0,5.1,0,7.7,0
			c-1.1-1.1-2.2-1.6-3.4-1.9C484.9,465.1,462.1,458.4,439.2,451.7z M-261.8,452.4c-23.7,6.8-47.4,13.6-71.1,20.3
			c0.6,1.2,0.9,1.3,1.3,1.3c30.9-0.1,61.9-0.2,92.8-0.2c33,0,65.9,0.1,98.9-0.2c3.3,0,7.3-1.6,9.8-3.8c5.2-4.7,1.8-11,2.4-17.2
			c-4.6,0-8.6,0-12.7,0c0-0.3,0-0.6,0-0.9c4,0,8.1,0,12.2,0c0-13.3,0-26.3,0-40.1c-9.7,3-18.9,5.9-28.1,8.6c-30,8.9-60,17.7-90,26.7
			C-251.6,448.6-256.6,450.6-261.8,452.4L-261.8,452.4z M117.9,118.7c-1.4-0.8-2.8-2.3-4.2-2.4c-7.7-0.2-15.5-0.1-23.5-0.1
			c0,11.7-0.1,22.9,0.1,34.2c0,1.1,1.4,2.9,2.4,3c11.2,1.8,19.3,8.1,24.5,16.4c6.9-6.3,13.9-12.4,20.6-18.9c5.4-5.2,5.3-5.6,0-11
			c-6.5-6.8-13-13.7-19.5-20.6c8.2,7.7,16.3,15.4,25.4,24c0.2-3.1,0.4-4.5,0.4-5.9c0-27.6,0-55.2,0.1-82.9c0-3.5-1.1-5.9-3.5-8.3
			C124.8,31,109.1,15.6,93.6,0.1c-3.1-3.1-4.9-3.1-8.1,0c-29.1,28.6-58.4,57-87.6,85.4c-1.3,1.3-2.5,2.7-4.6,4.9
			c12.7,0,24-0.2,35.3,0.1c4.3,0.1,5.9-1.2,5.7-5.6C34,74.6,34.2,64.3,34.2,54c0.4,0,0.7,0,1.1,0c0,29.4,0,58.8,0,88.2
			c9.7-8,18.3-16.3,26.5-24.9c2.3-2.4,4.4-3.6,7.7-3.4c6.4,0.3,12.9,0.1,19.7,0.1c0-4.6,0-8.6,0-12.6c0-9.8,0-9.8-9.6-9.8
			c-12.4,0-24.8,0-37.2,0c1.4-0.9,2.9-1.1,4.3-1.1c12.5,0.1,25,0.3,37.4,0.5c3.8,0.1,5.2-1.1,5.2-5.2c-0.2-14.5-0.1-29-0.1-43.5
			c0-14.2,0-28.4,0-42.7c0.4,0,0.7,0,1.1,0c0,37.9,0,75.9,0,114.4c6.3,0,12.3,0.2,18.2-0.1C112.7,113.9,116,114.7,117.9,118.7z
			 M-219.3,366.5c4.1,0.5,8,1.2,11.9,1.2c5.3,0.1,9.6,1.3,14.1,4.6c4.1,2.9,10.1,4.6,15.1,4.4c2.6-0.1,5.3-1.1,8,0.1
			c2.4,1,4.6,2.5,7.1,3c8.5,1.5,16.6,5.1,25.7,3.2c2.7-0.6,6,1.2,9.3,2c0-25.9,0-51.8,0-78.3c-17.8,0-35.3,0-53.3,0
			c0-48.2,0-95.7,0-143.6c-15.1,0-29.6,0-43.9,0c-1.5,3.3-3,6.1-4,9c-0.9,2.9-1.2,6-1.8,9c-1.1,5.4-8.5,9.3-12.4,5.8
			c-4.2-3.8-9.3-4.6-14-6.8c-8.7-4.1-13.9-11.2-14.2-20.8c-0.3-9.1,4.5-15.9,12.5-20.1c8.3-4.3,16.3-3.6,24,2
			c6.6,4.8,9,11.7,9.8,19.6c24.2,0,48.1,0,72.7,0c0,40.3,0,80.2,0,120.3c8.7,0,16.6,0,25.1,0c0-11,0-21.8,0-33.1
			c11.4,0,22.3,0,33.1,0c1.2-13.2,7.7-20.9,21.1-22.9c0-13,0-25.8,0-38.6c-0.1-53.3,0-106.7-0.3-160c0-5.2,1.5-6.4,6.5-6.3
			c15.8,0.3,31.7,0.1,47.5,0c1.8,0,3.5-0.1,5.4-0.2c0.1-1.3,0.2-2.1,0.2-2.9c-0.1-26.7-0.3-53.3-0.3-80c0-3.6-0.9-5.6-4.5-7.1
			c-6.7-2.8-10.4-9.3-10-15.9c0.5-6.5,5.5-13,11.8-14.7c7.1-2,12.5,0.8,17.3,6.1c1.4,1.6,4.1,2.7,6.2,2.8
			c11.8,0.3,23.7,0.3,35.5,0.3c4.3,0,8.6,0,12.6,0c7.1-23.2,17.4-32.9,34.4-33c7.6,0,14.4,2.3,20.5,6.8c8.6,6.4,13.4,15,14.2,26.1
			c3.8,0,7.1,0,10.4,0c36.8,0,73.7,0,110.5,0c7.2,0,7.3,0,7.3,7.2c-0.1,64.2-0.2,128.3-0.3,192.5c0,9.6,0,19.2,0,28.9
			c14.7,2.1,21.2,10.7,22.6,23.7c18.4,0,36.4,0.1,54.4-0.1c4.1-0.1,5.4,1,5.3,5.2c-0.2,26.3,0,52.7,0,79c0,1.6-0.2,3.2-0.3,5.3
			c-9.2,0-18,0-26.4,0c-0.4,0.8-0.6,1.1-0.6,1.4c-0.1,16.7-0.1,33.3-0.2,50c0,2.9,1.6,3.2,3.9,3.1c6.8-0.1,13.7-0.1,20.5-0.1
			c9.1,0,18.3,0,28,0c0-48.3,0-95.8,0-143.7c8,0,15.3,0,22.6,0c7.5,0,14.9,0,22.2,0c0.3-0.7,0.4-1,0.5-1.3
			c1.3-12.2,7.4-20,17.7-22.7c8.9-2.3,19.2,1.8,24.9,10c5.8,8.3,5.2,17-1.8,27.3c-0.8,1.3-0.9,3-1.4,4.5c-0.9,2.8-1.3,6.1-3.1,8.1
			c-2.6,2.9-7.2,2.8-9.5,0.1c-3.9-4.5-9.8-4.5-14-7.7c-3.5-2.7-7.6-5.8-9.1-9.6c-2.5-6.4-6.7-7-12.3-6.8c-7.5,0.3-15,0-22.5,0
			c-4,0-7.9,0-12.5,0c0,2.4,0,4.2,0,5.9c0,20.5,0,41,0,61.5c0.1,23.7,0.2,47.3,0.5,71c0.1,4.3-1.1,5.6-5.7,5.5
			c-15.2-0.3-30.3-0.1-45.5-0.1c-1,0-1.9,0.2-3.5,0.5c0.6,32.1-0.4,64.1,1,96c9.4-9.6,15.1-9.5,19,1.5c2.1-2,3.8-3.7,5.6-5.4
			c3.3,2.3,3.3,2.3,6.6-0.5c4.4-3.6,9.8-2.5,12.7,2.7c8.9-5.6,11.3-4.7,15.8,4.8c7.8-1.1,15.2-2.1,22.5-3.1c2,3.2,3.8,6.1,5.7,9.1
			c4-2,7.9-4.5,12.4-1c0.4,0.3,1.5-0.2,2.3-0.4c1.8-0.3,3.7-0.6,5.5-1c1.2-0.3,2.9-0.3,3.6-1.1c3.8-4.8,7.5-4.2,11.2,0.3
			c0.6-0.8,1.1-1.3,1.4-1.9c3.2-5,4.5-5.4,9.8-2.8c0.4,0.2,0.9,0.6,1.3,0.6c5.2,0.3,10.7-0.9,15.3,2.9c1,0.8,3.3,0.9,4.7,0.4
			c4.5-1.5,9-3.2,13.1-5.4c3.8-2.1,6.8-3.2,9.7,1.2c1.3,2.1,3.1,2.7,5.9,1.4c2.4-1.1,5.6-0.9,8.4-0.7c3.4,0.3,6.8,1.1,10.5,1.8
			c0.6-3.3,1-5.4,1.3-6.6c2.7-0.2,4.9-0.2,7.1-0.5c3.1-0.4,6.1-1.3,9.1-1.6c4.7-0.5,9.5-0.4,14.2-1c6.8-0.9,13.6-2.3,20.4-3.6
			c1-0.2,2.3-1.3,2.6-2.3c1.1-3.2-1.4-6.3-5.5-5.3c-7,1.7-12.1-2.9-18.3-3.8c-2.7-0.4-6.2-0.3-8-1.9c-7.8-7-18.2-8.2-27-12.8
			c-5.3-2.8-11.3-1.8-17-4.7c-8.2-4.2-13.8-9.2-17.1-18.9c3.7-3.5,7.9-7.3,12.1-11.2c4.2-3.9,8.5-7.8,12.6-11.8
			c3.3-3.2,3.8-9.6,10.5-8.8c0.4,0,0.9-0.8,1.3-1.3c1.9-2.3,3.9-4.7,5.8-7.1c0.8-1,2.5-2.1,2.3-2.9c-0.8-4.4,2.4-5.7,5.2-7.5
			c4.4-2.7,8.8-5.4,13.2-8c9.5-5.6,19.1-10.9,28.4-16.7c1.7-1.1,3.2-3.9,3.2-5.9c0.4-38,0.6-76,0.8-113.9c0.1-36.5,0-73,0-109.5
			c0-74.3,0-148.7,0.1-223c0-10.4-3.1-19.7-9.7-27.7c-10.2-12.3-23.1-18.8-39.1-18.8c-59.3,0-118.7-0.1-178-0.1
			c-160.3,0-320.6,0.1-481,0.1c-66.7,0-133.3-0.1-200,0c-27.5,0-48.3,20.1-48.4,46.7c-0.1,45.3-0.1,90.7,0,136
			c0.2,78.5,0.5,157,0.7,235.4c0.1,29.2,0.4,58.3,0.2,87.5c0,6.3,0.4,11.5,7.5,13.6c0.7,0.2,1.3,1,1.9,1.5c6.8,5,13.7,9.9,20.4,15.2
			c3.1,2.5,5.5,5.9,8.4,8.7c4.9,4.8,9.9,9.5,15,14.1c3.6,3.2,7.6,6,11.9,9.4c3.6-0.6,7.5,0.7,10.9,3.9c1.6,1.5,3.7,3,5.8,3.5
			c5.2,1.2,10.7,1.7,15.9,2.9c6,1.4,12.1,2.8,17.7,5.1c3.9,1.7,8.9-1,12.1,3.7c0.6,0.9,3.5,0.5,5.3,0.6c1,0,2-0.4,2.9-0.2
			c6.4,1.8,12.7,3.9,19.1,5.6c2.8,0.7,5.9,1.3,8.7,0.9C-220.8,363.2-218.7,363.4-219.3,366.5z M249.6,116.2c0-68.7,0-137.1,0-205.7
			c-42.2,0-84.1,0-126.2,0c-0.5,8.1-4.4,15.4-3.1,23.6c0.4,2.8-0.7,6.6-2.5,8.8c-8.1,9.7-15.3,10.9-26.4,4.8
			c-0.2,1.7-0.6,3.3-0.6,4.9c-0.2,10.5,0.1,21-0.7,31.5c-0.6,7.9,2.2,13.4,7.8,18.7c31.5,30,62.5,60.4,94,90.5
			c5.2,5,8.5,9.9,7.3,17.3c-0.3,1.7,0,3.5,0,5.7C216.3,116.2,232.7,116.2,249.6,116.2z M-20.1,193c0-2,0-3.6,0-5.3
			c0-26.7,0.2-53.3-0.1-80c0-5.2,1.7-8.6,5.3-12.1c33.8-32.6,67.4-65.4,101-98.3c1.5-1.5,2.8-3.9,2.8-6c0-13.8-0.5-27.6-0.6-41.5
			c0-3.9-1.5-5.7-5.4-6.9c-13-4-22.4-12.2-26.4-25.6c-0.7-2.3-1-4.8-1.5-7.1c-17.5,0-34.6,0-50,0c-2.4,7-4.5,13.1-6.7,19.2
			c-1,2.8-2.6,4-5.8,2.6c-3.1-1.3-5.2-0.2-5.1,3.5c0,2-0.1,4-0.1,6c0.1,24.8,0,49.6,0.3,74.5c0.1,4.6-1.4,5.9-6,5.8
			c-14.7-0.3-29.3,0-44,0c-3.1,0-6.2,0-9.3,0c0,57.5,0,114.3,0,170.9C-54.4,193-37.4,193-20.1,193z M-54.7,250.2
			c-2,7-6,12.5-12.9,14.8c-3.4,1.1-4.3,3-4.3,6.2c0,9.8-0.5,19.7-0.3,29.5c0.1,4.3-0.9,6-5.5,5.7c-5.9-0.4-11.9-0.1-17.5-0.1
			c0,28.8,0,56.8,0,84.8c0.3,0,0.5,0,0.8,0c0.2-0.8,0.4-1.6,0.4-1.5c4.6,0.4,9.1,0.5,13.5,1.1c2.5,0.3,4.9,1.9,7.3,1.9
			c3.6,0,7.4-0.4,10.8-1.5c12-3.9,24.3-5.4,36.9-4.3c4.1,0.4,5.5-1,5.5-5.2c-0.2-16.8-0.5-33.7,0.1-50.5c0.3-7.5-2-11.8-9-14.4
			c-6.7-2.6-6.6-3-7.8-10.7c2.6,7.9,9,10.6,16.4,12.6c0-23,0-45.5,0-68.4C-31.9,250.2-43.2,250.2-54.7,250.2z M199.1,386.3
			c8.6,0,15.8,0,22.9,0c2.1,0,4.3,0.1,6.4,0.7c7.5,2.1,14.9,4.6,22.5,6.6c4,1,8.3,1.2,12.5,1.8c0-0.4,0-0.7,0-1.1
			c0.7,0.9,1.4,1.7,2.1,2.6c0.4-1.1,0.8-2.1,0.9-2.5c1.6,0.1,2.9,0.1,4.3,0.4c2.5,0.6,6.1,0.6,7.1,2.2c1.9,2.9,3.6,2.2,5.8,1.3
			c1.1-0.4,2.2-1.2,3.3-1.1c5.6,0.4,11.2,0.9,17.2,1.5c0-31,0-61.2,0-91.8c-1.8-0.1-3.4-0.3-5-0.3c-25,0-50,0.1-75,0.1
			c-3.8,0-7.3-0.2-8.4,4.8c-0.2,1.1-2.1,2-3.3,2.7c-3.2,1.8-6.4,3.5-9.7,5.2c-2.7,1.3-3.7,3.3-3.6,6.4c0.3,5.3,0.1,10.7,0.1,16
			C199.1,356.5,199.1,371.3,199.1,386.3z M273,162.9c-1.5,5.4-2.6,10.5-4.3,15.5c-1.3,3.9-4.3,5.8-8.5,5.1c-2.4-0.4-4.7-1-7.6-1.7
			c0,22.4,0,44.1,0,65.9c26.4,0,52.5,0,78.9,0c0-28.4,0-56.4,0-84.9C312.1,162.9,293,162.9,273,162.9z M199.5,118.7
			c0,39.5,0,79,0,118.7c13.3-4.9,18.3-2.6,23.3,10.3c9.1,0,18.2,0,27.5,0c0-21.7,0.1-43.2-0.2-64.6c0-1.3-2-3.2-3.5-3.8
			c-10-4.2-16-12.3-15.6-21.6c0.4-9.5,6.3-16.3,16.9-19.8c1.1-0.4,2.7-1.7,2.7-2.7c0.3-5.3,0.1-10.6,0.1-16.4
			C233.5,118.7,216.7,118.7,199.5,118.7z M199.6,259c0,19.9,0,39.7,0,59.9c4.2-2.1,8-3.9,11.5-5.9c1.3-0.7,2.7-2.2,3-3.6
			c0.8-4.1,3.3-4.6,6.9-4.6c25.7,0.1,51.3,0,77,0c2,0,3.9,0,6.2,0c0-18.4,0-36.3,0-54c-0.4-0.3-0.5-0.4-0.6-0.4
			c-26.3-0.1-52.6-0.2-78.9-0.1c-1,0-2.5,0.9-3,1.8C214.8,263,211.7,264.1,199.6,259z M-127.8,283.3c-7.3,0-14-0.3-20.6,0.1
			c-5.1,0.3-6.4-1.4-6.4-6.5c0.2-36.3,0-72.6,0-109c0-1.8,0-3.5,0-5.1c-8.6,0-16.4,0-24.3,0c0,47.4,0,94.4,0,141.5
			c17.3,0,34.2,0,51.3,0C-127.8,297.3-127.8,290.7-127.8,283.3z M-0.6,365.7c0.1-0.1,0.1-0.3,0.2-0.4c10,0,20,0,30,0
			c2.4,0,4.7,0.1,4.7-3.5c-0.1-11.8,0.1-23.7-0.3-35.5c0-1.5-2.6-4.3-4-4.3c-14.8-0.3-29.6-0.2-44.5-0.1c-2.6,0-4.4,1-4.4,4.2
			c0,19.1,0,38.3-0.1,57.4c0,2.8,1.1,3.8,3.9,3.8c15.2-0.1,30.3-0.2,45.5-0.1c3.2,0,4-1.3,3.9-4.2c-0.2-4.3-0.2-8.7,0-13
			c0.2-3.3-1.2-4.3-4.3-4.3C19.7,365.8,9.6,365.7-0.6,365.7z M-71.9,195.5c0,10.3,0,20.1,0,30.1c12.2,2.3,17,10.6,18.1,21.9
			c11.3,0,22.3,0,33.3,0c0-17.6,0-34.8,0-52C-37.8,195.5-54.5,195.5-71.9,195.5z M-99.3,391.6c0.4-0.4,0.7-0.8,1.1-1.2
			c0-27.8,0-55.7,0-83.5c-9.2,0-18.1,0-26.8,0c0,28.1,0,55.7,0,82.6c2.8,0.3,4.6,0.8,6.5,0.8c3.8-0.1,8.1,0.7,11.2-0.9
			C-103.6,387.3-101.2,384.7-99.3,391.6z M120.5-98c-3.5-17-21-28.3-38.3-24.1c-22.6,5.5-32.4,31.6-18.4,49.4c0.8,1,1.9,2.7,2.8,2.6
			c5.2-0.3,11.2,0.4,15.5-1.9c8-4.3,15.2-10.4,22.5-15.9c3.6-2.7,6.6-6,10.2-8.7C116-97.6,118.2-97.5,120.5-98z M194.7,96.8
			c-3.6,3.4-5.6,5.3-7.6,7.3c-12,11.7-24.1,23.4-36,35.2c-2.5,2.5-5.8,5.5-2.5,9.2c6.4,7.2,13.2,14,20,21c2.3,2.4,4.5,2.2,6.8-0.2
			c6.4-6.5,13-12.8,19.4-19.4c1.2-1.3,2.2-3.4,2.2-5.1c0.4-12.8,0.8-25.5,0.7-38.3C197.6,103.6,196,100.7,194.7,96.8z M95.6,268.2
			c16,16.1,32.4,32.5,48.6,48.9c0-13.7,0-28-0.1-42.3c0-1.4-0.6-3.1-1.5-4.1c-8-8.7-16-17.3-24.3-25.7c-2.1-2.2-5.2-2.8-7.8,0.1
			c-5.2,5.7-10.4,11.2-15.6,16.9c-1.1,1.2-1.7,2.8-3.2,5.3c15.6,0,29.9,0,44.2,0c0,0.3,0,0.6,0,1C122,268.2,108.1,268.2,95.6,268.2z
			 M-74.4,304.6c0-12.6,0.1-24.4-0.1-36.2c0-1.1-1.6-2.9-2.7-3.2c-7.3-1.9-12.3-6.2-15.6-12.9c-0.5-1-1.8-2.2-2.7-2.3
			c-9.9-0.2-19.8-0.1-29.9-0.1c0,10.8,0,20.8,0,31.2c9.9,0,19.5,0,29.5,0c0,7.8,0,15.2,0,22.8c1.5,0.2,2.7,0.6,3.8,0.6
			C-86.4,304.7-80.6,304.6-74.4,304.6z M117.5,177.6c-2.7-14.6-19.2-25.3-34-21.6c-21.4,5.3-30.4,28.3-17.4,45.2
			c1.1,1.4,3.1,3.1,4.6,3c11.7-1.3,22-5.7,30.3-14.4c3.7-3.8,7.6-7.3,11.7-10.7C113.8,178,115.8,178,117.5,177.6z M88.8,153.2
			c0-12.5,0-24.7,0-37.2c-7.2,0-13.8-0.1-20.5,0.1c-1.4,0-3.1,0.6-4,1.5c-8.4,8.3-16.8,16.6-25,25.1c-1,1-1.1,4.5-0.3,5.4
			c7.7,7.3,15.7,14.2,23.5,21.1C68,160.8,77,154.6,88.8,153.2z M84.2,268.6c-12.8,0-26.9-0.1-41,0c-6.4,0-8.3,2.2-8.3,8.7
			c0,12.5,0.1,25,0.2,37.5c0,1,0.3,2.1,0.6,3.4C52.2,301.3,68.4,284.7,84.2,268.6z M191.5,95.2c-1.7-0.8-4.5-3.2-7.3-3.3
			c-11.6-0.5-23.3-0.1-34.9-0.3c-3.5-0.1-4.5,1.2-4.5,4.6c0.1,14.1,0,28.3,0,42.4c0,1.2,0.3,2.3,0.7,4.5
			C161.2,126.7,176.1,111.2,191.5,95.2z M-98.7,403.6c-8.2,2.3-16,4.5-23.7,6.8c-2.4,0.7-3.8,2.3-3.4,5.2c0.4,3.4,0.4,6.9,0.4,10.4
			c0.1,8.4,0,16.9,0,26c7.7,0,15.5,0.2,23.3-0.2c1.1,0,3-2.4,3.1-3.8c0.4-5.8,0.3-11.6,0.3-17.5C-98.6,421.9-98.7,413.1-98.7,403.6z
			 M88.7,239c0-4-0.1-7.4,0-10.9c0.2-4.6-1.4-7.9-5.3-10.5c-6.1-4.2-12-8.7-18-13.1c-0.5-0.4-1.2-0.5-1.9-0.5c-8.7,0-17.5,0-27.2,0
			c9.8,11.6,18.9,22.5,28.2,33.3c1,1.2,3.3,1.6,5,1.7C75.8,239.1,82,239,88.7,239z M36.2,147.4c-0.9,1-1.2,1.3-1.2,1.5
			c-0.1,16.9-0.2,33.9-0.1,50.8c0,1,1.5,2.9,2.4,2.9c8.5,0.2,17,0.1,26.4,0.1c-5.2-9.8-7.1-18.5-3.9-27.8c0.3-1,0-2.8-0.7-3.5
			C51.5,163.4,44,155.5,36.2,147.4z M447.6,154.6c-0.8-7.6-8.2-14.7-17.6-16.3c-9-1.5-18.6,3.9-22.3,12.4
			c-3.5,8.1-1.7,16.8,4.6,22.4c0.7,0.6,1.9,1.3,2.5,1c5.7-2.6,11.5-5,16.8-8.2C437,162.7,441.9,158.7,447.6,154.6z M-228.5,155
			c-1-8-7.4-14.6-16.7-16.4c-7.8-1.5-17,2.6-21.6,9.5c-4.3,6.5-4.3,14.8,0,21.1c1.9,2.8,4,3.7,7.6,3c9.8-2,17.8-7.2,25.2-13.5
			C-232.5,157.5-230.8,156.5-228.5,155z M144.2,147.1c-2.2,1.9-3.2,2.6-4.1,3.5c-5.9,6.1-11.7,12.3-17.8,18.2
			c-2.8,2.7-3.8,5.2-2.4,9.2c1,3,1,6.6,0.8,9.8c-0.6,9.3,3.3,13.9,12.5,14.1c2.2,0,4.3-0.1,6.5,0.1c3.3,0.4,4.4-1,4.4-4.2
			c-0.1-7,0.1-14,0.1-20.9C144.2,167.5,144.2,158.1,144.2,147.1z M143.9,206.6c-0.5-0.3-0.9-0.7-1.4-1c-0.4,0.8-0.6,1.6-1.1,2.3
			c-7.5,8.9-14.8,18-22.7,26.5c-3.3,3.5-2.7,5.7,0.2,8.6c7.2,7.2,14.3,14.4,21.5,21.6c0.8,0.8,2,1.3,3.6,2.2
			C143.9,246.1,143.9,226.4,143.9,206.6z M270.7,154.4c-1.7-7.6-6.5-13-14.7-15c-7-1.7-15.1,1.8-19.6,8.1c-4.6,6.6-4.8,14.1-0.3,21
			c0.9,1.4,2.8,3.3,3.9,3.1c5.5-1.2,11.3-1.5,15.9-6.1C260,161.2,265.4,158.2,270.7,154.4z M145.1,50.9c0,13.8,0,26.3,0,39.1
			c13.4,0,26.5,0,40.3,0C171.9,76.8,158.9,64.3,145.1,50.9z M-72.2,226.7c-9.4,1.1-15,4.6-18.3,11.3c-3,6.1-2.3,11.9,1.8,17.3
			c1.6,2.1,3,2.6,5.8,1.9c8-2.2,14.2-6.9,20.5-11.9c6-4.7,6.6-7.5,0.8-12.6C-64.9,229.7-69.6,228.1-72.2,226.7z M145.3,147.5
			c0,18.2,0,35.1,0,50.9c7.2-6.7,14.9-13.6,22.1-20.8c1.1-1.1,1.5-4.9,0.5-6C161,163.6,153.5,156,145.3,147.5z M197.8,202.1
			c-8.1-8.3-15-15.8-22.3-22.8c-1.3-1.3-5.5-1.8-6.6-0.7c-7.5,7.4-14.6,15.3-22.2,23.5C163.7,202.1,180.1,202.1,197.8,202.1z
			 M-18.8,270.8c0,16.1,0,30.7,0.1,45.3c0,1,0.7,2.7,1.2,2.8c1,0.2,2.5-0.3,3.3-1.1c6.1-6.1,12.1-12.3,18.2-18.5c2-2,2-3.9-0.1-6
			C-3.4,286.2-10.5,279-18.8,270.8z M197.4,149.7c-7.7,7.6-14.9,14.6-21.8,21.9c-0.9,0.9-0.5,4.5,0.5,5.5
			c7.2,6.9,14.7,13.3,21.2,19.2C197.4,182.6,197.4,166.6,197.4,149.7z M197.5,271.8c-7.6,7.2-14.6,13.9-21.6,20.6
			c-2.1,2-2.6,4.1-0.2,6.4c6.4,6.2,12.8,12.5,19.2,18.8c0.6,0.6,1.5,0.8,2.6,1.5C197.5,303.1,197.5,287.8,197.5,271.8z
			 M-125.5,304.4c9.4,0,18.3,0,27.3,0c0-7.1,0-13.9,0-20.7c-9.3,0-18.2,0-27.3,0C-125.5,290.7-125.5,297.3-125.5,304.4z
			 M-125.5,473.3c9.2,0,18.1,0,26.9,0c0-6.9,0-13.5,0-20.2c-9.2,0-17.9,0-26.9,0C-125.5,459.9-125.5,466.2-125.5,473.3z M30.6,320.8
			c-6.3-6.9-12.7-14.1-19.4-20.8c-0.9-0.9-4.6-0.7-5.7,0.3c-7,6.4-13.7,13.3-21,20.5C0.8,320.8,16,320.8,30.6,320.8z M-27.1-85.3
			c0,9.1,5.4,12.4,13.3,7.9c3.8-2.2,7.1-5.4,11-7.6c4.3-2.5,3.6-5.3,1.3-8.6c-3.5-5-9.6-7.2-15.3-5.4
			C-22.7-97.1-27.1-91.3-27.1-85.3z M209.8,236c-5.9,1-10,2.5-12.2,7.1c-1.9,3.9-1.4,7.7,1.1,11.3c2.2,3.1,4.7,4,8,1.4
			c3-2.4,6-4.8,9.2-6.9c4.5-2.9,5-5.1,1-8.7C214.7,238.1,211.6,237,209.8,236z M110.8,241.7c-7.4,0-13.8,0-20.2,0
			c0,7.5,0,14.6,0,22.8C97.7,256.4,103.9,249.4,110.8,241.7z M67.4,241.3c7.7,7.2,14.9,13.8,21.3,19.7c0-5.6,0-12.5,0-19.7
			C81.7,241.3,75.1,241.3,67.4,241.3z M115.6,231c-8.6,2.6-16.6,0.8-24.8-4c0,4.4,0,8,0,11.9c6.4,0,12.6,0.2,18.7-0.1
			C113.6,238.6,115.9,235.3,115.6,231z M124,225.3c5.5-6.4,11.7-13.5,18.3-21.1c-6.5,0-12.1,0-17.2,0
			C124.7,211.5,124.4,218.4,124,225.3z M-317.6,493.2c0-0.1,0.1-0.3,0.1-0.4c-9.6,0-19.2,0-28.8,0c0,0.1,0,0.3,0,0.4
			C-336.8,493.2-327.2,493.2-317.6,493.2z"/>
		<path class="st0" d="M-219.3,366.5c0.6-3-1.5-3.3-5-2.8c-2.8,0.4-5.9-0.2-8.7-0.9c-6.4-1.7-12.7-3.8-19.1-5.6
			c-0.9-0.3-2,0.2-2.9,0.2c-1.8-0.1-4.6,0.4-5.3-0.6c-3.1-4.6-8.2-2-12.1-3.7c-5.6-2.4-11.7-3.8-17.7-5.1
			c-5.2-1.2-10.7-1.6-15.9-2.9c-2.1-0.5-4.2-2-5.8-3.5c-3.5-3.2-7.4-4.5-10.9-3.9c-4.3-3.4-8.3-6.2-11.9-9.4
			c-5.1-4.5-10.1-9.3-15-14.1c-2.9-2.8-5.3-6.2-8.4-8.7c-6.6-5.3-13.6-10.1-20.4-15.2c-0.7-0.5-1.2-1.3-1.9-1.5
			c-7-2.1-7.5-7.3-7.5-13.6c0.1-29.2-0.1-58.3-0.2-87.5c-0.3-78.5-0.6-157-0.7-235.4c-0.1-45.3-0.1-90.7,0-136
			c0.1-26.6,20.9-46.7,48.4-46.7c66.7-0.1,133.3,0,200,0c160.3,0,320.6-0.1,481-0.1c59.3,0,118.7,0.1,178,0.1
			c16.1,0,29,6.5,39.1,18.8c6.6,8,9.7,17.3,9.7,27.7c-0.1,74.3-0.1,148.7-0.1,223c0,36.5,0.1,73,0,109.5c-0.1,38-0.3,76-0.8,113.9
			c0,2-1.6,4.9-3.2,5.9c-9.3,5.8-18.9,11.1-28.4,16.7c-4.4,2.6-8.8,5.3-13.2,8c-2.8,1.7-6,3-5.2,7.5c0.1,0.8-1.5,1.9-2.3,2.9
			c-1.9,2.4-3.8,4.7-5.8,7.1c-0.4,0.5-0.9,1.3-1.3,1.3c-6.7-0.8-7.2,5.6-10.5,8.8c-4.1,4-8.4,7.9-12.6,11.8
			c-4.2,3.9-8.3,7.7-12.1,11.2c3.3,9.7,8.9,14.7,17.1,18.9c5.7,3,11.7,2,17,4.7c8.8,4.6,19.2,5.8,27,12.8c1.8,1.6,5.2,1.5,8,1.9
			c6.1,0.9,11.3,5.6,18.3,3.8c4.1-1,6.6,2.1,5.5,5.3c-0.3,1-1.6,2.1-2.6,2.3c-6.8,1.4-13.6,2.7-20.4,3.6c-4.7,0.6-9.5,0.5-14.2,1
			c-3.1,0.3-6.1,1.2-9.1,1.6c-2.2,0.3-4.4,0.3-7.1,0.5c-0.2,1.2-0.6,3.3-1.3,6.6c-3.6-0.6-7-1.5-10.5-1.8c-2.8-0.2-6-0.5-8.4,0.7
			c-2.8,1.4-4.6,0.7-5.9-1.4c-2.9-4.5-5.9-3.3-9.7-1.2c-4.1,2.2-8.6,3.9-13.1,5.4c-1.4,0.5-3.6,0.4-4.7-0.4
			c-4.7-3.8-10.1-2.6-15.3-2.9c-0.5,0-0.9-0.4-1.3-0.6c-5.3-2.6-6.6-2.3-9.8,2.8c-0.3,0.5-0.8,1-1.4,1.9c-3.7-4.5-7.4-5-11.2-0.3
			c-0.6,0.8-2.3,0.8-3.6,1.1c-1.8,0.4-3.6,0.7-5.5,1c-0.8,0.1-1.9,0.7-2.3,0.4c-4.5-3.5-8.4-0.9-12.4,1c-1.9-3-3.7-5.9-5.7-9.1
			c-7.4,1-14.8,2.1-22.5,3.1c-4.5-9.5-6.9-10.4-15.8-4.8c-2.9-5.2-8.3-6.4-12.7-2.7c-3.4,2.8-3.4,2.8-6.6,0.5
			c-1.7,1.7-3.5,3.4-5.6,5.4c-3.9-10.9-9.6-11.1-19-1.5c-1.4-32-0.4-63.9-1-96c1.6-0.2,2.6-0.5,3.5-0.5c15.2,0,30.3-0.3,45.5,0.1
			c4.6,0.1,5.7-1.2,5.7-5.5c-0.3-23.7-0.4-47.3-0.5-71c-0.1-20.5,0-41,0-61.5c0-1.8,0-3.6,0-5.9c4.6,0,8.5,0,12.5,0
			c7.5,0,15,0.3,22.5,0c5.7-0.2,9.8,0.4,12.3,6.8c1.5,3.8,5.6,7,9.1,9.6c4.2,3.2,10.1,3.2,14,7.7c2.3,2.6,6.9,2.8,9.5-0.1
			c1.8-2,2.2-5.4,3.1-8.1c0.5-1.5,0.6-3.3,1.4-4.5c6.9-10.3,7.6-19,1.8-27.3c-5.7-8.2-16-12.3-24.9-10
			c-10.3,2.7-16.4,10.4-17.7,22.7c0,0.3-0.2,0.6-0.5,1.3c-7.3,0-14.8,0-22.2,0c-7.3,0-14.6,0-22.6,0c0,47.9,0,95.5,0,143.7
			c-9.8,0-18.9,0-28,0c-6.8,0-13.7,0-20.5,0.1c-2.2,0-3.9-0.2-3.9-3.1c0.1-16.7,0.1-33.3,0.2-50c0-0.3,0.2-0.6,0.6-1.4
			c8.5,0,17.2,0,26.4,0c0.1-2.1,0.3-3.7,0.3-5.3c0-26.3-0.1-52.7,0-79c0-4.2-1.2-5.3-5.3-5.2c-18,0.2-36,0.1-54.4,0.1
			c-1.4-13-7.9-21.6-22.6-23.7c0-9.7,0-19.3,0-28.9c0.1-64.2,0.2-128.3,0.3-192.5c0-7.3,0-7.3-7.3-7.2c-36.8,0-73.7,0-110.5,0
			c-3.3,0-6.6,0-10.4,0c-0.8-11.1-5.6-19.7-14.2-26.1c-6.1-4.5-12.9-6.9-20.5-6.8c-17,0.1-27.3,9.8-34.4,33c-4.1,0-8.3,0-12.6,0
			c-11.8-0.1-23.7,0-35.5-0.3c-2.1-0.1-4.8-1.2-6.2-2.8c-4.8-5.3-10.2-8.1-17.3-6.1C-23.4-99-28.4-92.5-28.9-86
			c-0.5,6.5,3.2,13,10,15.9c3.6,1.5,4.5,3.5,4.5,7.1c0,26.7,0.2,53.3,0.3,80c0,0.8-0.1,1.6-0.2,2.9c-1.9,0.1-3.7,0.2-5.4,0.2
			c-15.8,0.1-31.7,0.3-47.5,0c-5-0.1-6.5,1.2-6.5,6.3c0.2,53.3,0.2,106.7,0.3,160c0,12.8,0,25.6,0,38.6
			c-13.3,2.1-19.8,9.7-21.1,22.9c-10.7,0-21.6,0-33.1,0c0,11.4,0,22.1,0,33.1c-8.5,0-16.4,0-25.1,0c0-40.1,0-80,0-120.3
			c-24.6,0-48.5,0-72.7,0c-0.8-8-3.2-14.9-9.8-19.6c-7.6-5.5-15.7-6.3-24-2c-8,4.2-12.8,10.9-12.5,20.1c0.3,9.6,5.5,16.6,14.2,20.8
			c4.7,2.2,9.8,3,14,6.8c3.9,3.5,11.4-0.4,12.4-5.8c0.6-3,0.9-6.1,1.8-9c0.9-3,2.5-5.8,4-9c14.3,0,28.9,0,43.9,0
			c0,47.9,0,95.5,0,143.6c18,0,35.5,0,53.3,0c0,26.5,0,52.4,0,78.3c-3.4-0.8-6.6-2.6-9.3-2c-9,1.9-17.2-1.6-25.7-3.2
			c-2.5-0.5-4.7-2-7.1-3c-2.7-1.2-5.3-0.2-8-0.1c-5,0.3-11-1.4-15.1-4.4c-4.5-3.3-8.8-4.5-14.1-4.6
			C-211.3,367.7-215.2,366.9-219.3,366.5z M177.9-177.3c-0.6-2.7-1.2-5.4-1.9-8.1c-1.5,1.3-2.8,2.2-3.8,3.4c-1,1.2-2.3,2.8-2.1,3.9
			c0.2,1.2,2.1,2.9,3.3,2.9c1.4,0.1,2.9-1.4,4.3-2.2c3.7,3.3,3.7,3.3,6.3,0.5c-1,0-1.9-0.1-3.2-0.1c1.7-0.8,3-1.4,4.3-2
			c0.1-0.5,0.2-0.9,0.3-1.4c-1.6-0.6-3.8-2.2-4.7-1.7C179.4-181.2,178.9-178.9,177.9-177.3z M324.9-53c-1.2-0.6-2.3-1.2-3.4-1.7
			c0.6-2.4,1.3-4.4,1.6-6.5c0.8-6.8-1.5-11.4-7.4-12.1c-7-0.8-14.1-0.2-21.1-0.2c0,13.2,0,26.2,0,39.7c9.9-1.2,19.4,1.9,28.6-2.5
			c1.2-0.6,3.8,0.1,4.9,1.1c3.2,2.8,5.8,2.6,7.4,0.8c3.5,0.6,6.1,1.1,8.3,1.5c-0.6-7.8-1.1-14.7-1.6-21.6c-0.4-5.9-3.4-8.8-9-7.9
			c-2.6,0.4-5.1,2.1-7.5,3.4c-2.7,1.5-2.5,3.7-0.9,6.1L324.9-53z M410.8-73.8c0,4.1,0.2,7.9-0.1,11.6c-0.1,1.3-1.6,3.5-2.7,3.6
			c-3.9,0.4-7.8,0.2-12.2,0.2c0-5.8,0-10.5,0-15.2c-3,0-5.4,0-7.9,0c0,13.3,0,26.4,0,39.3c2.9,0,5.3,0,8.3,0c0-5.4,0-10.5,0-15.7
			c5,0,9.4,0,14.3,0c0,5.4,0,10.5,0,15.7c2.9,0,5.3,0,8.2,0c0-13.3,0-26.4,0-39.6C416-73.8,413.4-73.8,410.8-73.8z M-229.5,102.4
			c0-0.1,0-0.1,0-0.2c30,0,60,0.1,90,0c12,0,20.8-9.1,20.7-21c-0.1-11.7-9.2-21.2-20.8-21.2c-60.5-0.1-121-0.1-181.5,0
			c-8.9,0-16.6,6-19.8,14.9c-2.9,8.3-0.4,16.6,6.6,22.4c4.6,3.8,9.9,5.1,15.8,5.1C-288.8,102.3-259.2,102.4-229.5,102.4z
			 M-318.9-65.3c6.1,0,11.8,0,18.6,0c-6.2,7.1-11.5,13.6-17.2,19.6c-3.5,3.6-4.1,7.2-2.5,11.7c10.7,0,21.3,0,32,0c0-2.5,0-4.5,0-7.2
			c-7.2,0-14.1,0-22.2,0c6.5-8,12.4-14.9,17.9-22.1c2.1-2.8,3.2-6.3,5.1-10.2c-11.7,0-21.7,0-31.7,0
			C-318.9-70.8-318.9-68.4-318.9-65.3z M404,60c-31.2,0-62.3,0-93.5,0c-10.4,0-18.1,6.2-20.2,15.9c-2.3,10.3,2.4,20.4,11.9,24.4
			c3.7,1.5,8.1,1.9,12.2,1.9c60.8,0.1,121.6,0.1,182.5,0.1c2.5,0,5-0.2,7.4-0.8c9.4-2.6,15.9-12.9,14.6-22.9
			c-1.3-10.2-10.2-18.5-20.4-18.5C467,60,435.5,60,404,60z M-182.4-50.7c0.3,0,0.6,0,0.9,0c0.9,4.8,1.6,9.7,2.8,14.4
			c0.3,1.1,2.1,2.7,3.1,2.6c2.1,0,5.6-0.6,5.9-1.7c2.3-8.7,3.9-17.6,5.8-26.4c-5.2-1.6-7.4,0.1-7.9,4.8c-0.4,3.4-1.3,6.7-2,10.1
			c-1.9-3.9-2.6-7.7-3.1-11.4c-0.3-2.3-0.6-4.3-3.7-3.9c-2.6,0.3-5.7-0.9-6.3,3.5c-0.6,4.1-1.8,8.2-2.8,12.2c-1.3-3.3-2-6.4-2.7-9.5
			c-1.6-7-1.7-7.1-9-5.6c0.2,1.3,0.4,2.6,0.7,3.9c1.9,7.2,3.7,14.5,6.1,21.6c0.5,1.3,3.5,2.3,5.4,2.4c1.1,0.1,3.1-1.6,3.5-2.8
			C-184.4-41.1-183.5-45.9-182.4-50.7z M-257.8-34.2c5.9,0.4,11.5,1.3,17.1,1c2.7-0.1,5.8-1.8,7.7-3.7c6.2-6.2,4.7-19.4-2.6-24.4
			c-4.9-3.4-9.9-2.4-15.2,1.2c0-5.1,0-9.3,0-13.7c-2.7,0-4.9,0-7.1,0C-257.8-60.3-257.8-47.2-257.8-34.2z M-268-52.1
			c-4.1,0.5-7.7,0.7-11.2,1.5c-5.1,1.2-8.7,6.5-8,11.2c0.6,4.3,4.3,6.8,10.3,6.4c1.9-0.1,3.8-1,5.7-1.4c0.7-0.2,1.5-0.4,2.2-0.3
			c2.9,0.5,5.9,1.1,8.7,1.7c-0.4-3.6-0.9-5.9-1-8.3c-0.2-4.6,0.2-9.3-0.4-13.9c-0.7-5.3-5.2-7.9-12.1-7.9c-7,0-10.1,2.1-11.6,9.1
			c3.5-0.6,6.6-1.1,9.5-1.8C-272.6-56.6-269.3-57.8-268-52.1z M-209.4-52.4c-4.5,1.1-8.8,1.9-13.1,3.1c-3.7,1.1-5.7,3.6-5.6,7.8
			c0.3,7.3,7.3,10.8,15.3,7.5c1.1-0.5,2.3-1.3,3.3-1.1c2.3,0.5,4.6,1.5,6.7,2.2c0-8,0.5-14.8-0.1-21.6c-0.6-6.6-3.1-8.4-9.8-8.6
			c-8.3-0.3-12.6,2.2-14.6,9.4c4.1-0.9,7.6-1.6,11.2-2.5C-212.8-56.9-210.1-56.9-209.4-52.4z M-144.2-52.9
			c-4.9,1.1-9.4,1.5-13.1,3.2c-2.6,1.2-5.4,4.1-6.2,6.8c-0.6,2.2,0.9,6.9,2.8,7.6c3.5,1.5,7.8,1.1,11.7,1.4c1,0.1,2.1-1,3.1-0.8
			c2.5,0.4,4.9,1.2,7.9,2c0-7.9,0.1-14.5,0-21.1c-0.1-6.3-3.3-9.2-10.3-9.4c-8.6-0.3-12.5,2.4-13.2,10.1c3.2-1.1,6.1-2,8.9-2.9
			C-149.7-56.9-146.9-57.2-144.2-52.9z M446.9-32.9c0-7.5,0.2-13.7-0.1-19.8c-0.2-6.2-3.6-9.6-9.5-10.2c-8.3-0.8-12.9,1.8-14.9,9.7
			c3.9-1,7.3-1.5,10.5-2.7c3.4-1.3,5.3-0.3,5.7,3.8c-3.5,0.7-7.2,1.3-10.7,2.2c-4.6,1.3-7.2,5.4-6.5,9.9c0.7,4.5,4.4,7.3,9.5,6.8
			c2.6-0.3,5-1.4,7.5-2.2c-0.1,0.3-0.2,0.6-0.3,0.8C440.9-34,443.6-33.5,446.9-32.9z M474.6-33.1c0-10.3,0-19.4,0-28.6
			c-2.6,0-4.8,0-7.4,0c0,5.8,0.2,11.3-0.1,16.7c-0.1,1.6-1.7,3.8-3.1,4.3c-1.5,0.5-4.1-0.2-5.3-1.4c-1.2-1.2-1.6-3.5-1.7-5.4
			c-0.2-4.8-0.1-9.5-0.1-14.3c-3.1,0-5.5,0-7.6,0c0,5.9,0,11.3,0,16.8c0,4.3,0.5,8.4,4.8,10.7c4.6,2.4,8.9,1.4,11.3-0.7
			C469.2-34.3,471.6-33.8,474.6-33.1z M363.5-61.9c0,5.8,0.4,11.2-0.2,16.4c-0.2,1.9-2.6,4.9-4.1,4.9c-1.7,0.1-3.9-2.3-5.2-4.1
			c-0.8-1-0.4-2.9-0.4-4.4c0-4.3,0-8.5,0-12.9c-3.1,0-5.3,0-8,0c0,6.7,0,13.2,0,19.7c0,5.6,3.1,9.2,8.7,9.3c5.4,0,10.9-0.8,16.1-1.2
			c0-9.4,0-18.4,0-27.6C368.1-61.9,366.1-61.9,363.5-61.9z M500.8-52.8c-1.6-8.8-10.1-12.9-17.2-8.8c-2.5,1.5-4.5,5.2-5.2,8.2
			c-0.8,3.7,2.3,6,5.7,7.2c2,0.7,4.3,0.7,6.3,1.4c1.4,0.5,2.7,1.6,3.8,2.8c0.2,0.2-1,2.5-1.5,2.6c-1.8,0-4.7,0.1-5.3-1
			c-2.7-4.5-6.1-2.3-9.5-2.3c0.5,6,3.8,9.5,10.3,9.3c4-0.1,9-1.1,11.8-3.7c4.9-4.6,1.7-11.6-5.8-14c-2.8-0.9-5.7-1.5-8.6-2.3
			c0.1-0.7,0.2-1.4,0.3-2.1c1.9,0,3.8-0.3,5.6,0.1C494.4-54.8,497.3-53.8,500.8-52.8z M494.4-168.1
			C494.4-168.1,494.4-168.1,494.4-168.1c6.3,0.1,12.7-0.4,18.9,0.2c6.8,0.7,13-6.2,13.1-12.3c0.1-7.5-4.8-13.3-12.4-13.4
			c-13.1-0.2-26.3-0.2-39.4,0c-6.8,0.1-12.7,6.4-12.7,13c0,6.5,6,12.4,13,12.5C481.4-168.1,487.9-168.1,494.4-168.1z M294.4,8
			c0,3.1,0,5.8,0,8.2c6.3,0,12.1,0,18,0c-0.6-1.2-1.1-2.1-1.9-3.7c3.1,1.7,5.3,2.9,6.8,3.7c0.7-2,1.6-3.7,1.3-4c-1.3-1.2-3-2-4-2.6
			c-2,0.7-4.1,1.4-6.2,2.2c-0.3-1.3-0.6-2.3-0.6-2.4c-2.7,1.1-5.1,2.1-7.9,3.3C300.9,8.2,298.7,6.9,294.4,8z M-280.7-176.5
			c-0.3-0.4-0.6-0.9-1-1.3c-1.4,0.4-2.8,0.9-4.5,1.4c0-1.6,0-2.6,0-3.6c1.8-0.2,3.3-0.3,4.8-0.4c0.1-0.5,0.1-1,0.2-1.5
			c-2.4-0.5-4.8-1-8.2-1.7c0,3.4,0,5.7,0,8c-0.3,0-0.5,0-0.8-0.1c-0.2-2.4-0.4-4.8-0.5-7.2c-0.4,0.1-0.7,0.1-1.1,0.2
			c-0.6,2.1-1.2,4.3-1.8,6.4c-0.5-0.1-1-0.3-1.6-0.4c0-2.1,0-4.2,0-6.6c-1.3,0.2-2.2,0.3-3.7,0.6c1.9,3.2-1.6,9.3,5.2,8.7
			c-0.3,1.1-0.6,2.2-0.9,3.4c1.3-0.1,2.6,0.1,3.9-0.2c1.3-0.3,2.5-0.9,3.6-1.5C-284.9-173.7-282.8-175.2-280.7-176.5z M-326.8,16.9
			c4.7-0.3,9.2-0.5,13.5-0.7c0.3-2.1,0.5-4.3,0.7-6c-2.7,0.6-5.6,1.3-8.6,2.1c1-5.1-2.3-4.4-5.6-4.2
			C-326.8,11-326.8,13.7-326.8,16.9z M-67.8-175.4c3.7,0.2,7.4,0.7,11,0.4c1.3-0.1,3-1.9,3.6-3.3c0.4-0.8-0.6-3-1.5-3.5
			c-1.2-0.6-3.1-0.4-4.4,0.1c-1,0.4-1.6,1.9-2.4,3c-1.2-0.6-2.3-1.2-3.5-1.9c1-0.3,1.8-0.5,3.1-0.8
			C-67.1-183.3-67.1-183.3-67.8-175.4z M-169.8,15.1c1.9,0.4,3.9,0.8,5.7,1.2c1-3.7,0.2-5.4-2.9-5.4c-3.6,0-7.3,0.9-10.7,0.2
			c-4.5-0.9-5.4,0.8-5,4.6c2.5,0,4.9,0,7.3,0c0.2-0.7,0.4-1.6,0.7-3.2c0.5,1.7,0.8,2.8,1.3,4.6c0.8-1.5,1.3-2.3,1.7-3.1
			c0.3,0.8,0.7,1.6,1.4,3.1C-169.8,15.5-169.7,14.9-169.8,15.1z M-132.8-178.8c0.7,1.6,1.2,2.7,1.7,3.8c0.5-0.1,0.9-0.2,1.4-0.3
			c0.2-3.2,0.4-6.3,0.8-11.2c-3,2.3-5,3.8-6.4,4.9c-1.1-0.9-2.4-2-3.7-3.2c-0.4,2.5-1,4.9-1.2,7.4c-0.1,0.7,0.6,1.6,1.3,3.2
			c0.8-1.8,1.2-2.6,2.1-4.5c0.5,1.5,0.9,2.5,1.4,3.8C-134.2-176.8-133.6-177.7-132.8-178.8z M-326.9,35.6c3.2-3,9,2.9,10.4-4.7
			c0.5,1.4,0.7,2.2,1,2.9c0.6-1,1.1-1.8,1.5-2.3c0.9,1.1,1.7,2.1,2.4,3c0.8-1,1.5-2.1,2.4-3.3c0.3,1.2,0.5,2.3,0.8,3.4
			c0.3,0,0.5-0.1,0.8-0.1c0-1.9,0-3.9,0-4.8c-6.5,0-12.8,0-19.2,0C-326.9,32.1-326.9,33.5-326.9,35.6z M-301.9-185.4
			c-2.4,3.4-10.4,2.3-7.3,8.4c0.9,1.8,5.5,1.8,8.9,2.8C-301-178.9-301.5-182.2-301.9-185.4z M39.2-178c-1.9-1.5-3.4-3.5-5.4-4.1
			c-2.6-0.8-5.5-0.5-9.2-0.7c0.1,1.9,0.3,4.5,0.5,7.2c0.4,0,0.8-0.1,1.3-0.1c0.4-1.4,0.8-2.9,1.1-4.3c0.4,0,0.7-0.1,1.1-0.1
			c0.5,1.6,0.9,3.2,1.7,5.8c2-1.9,3.5-3.5,5.1-5c0.3,1.1,0.6,2.6,1,4.2c5.3,0.4,4.5-3,3.7-6.2C39.8-179.9,39.4-178.5,39.2-178z
			 M-289.4,13.9c-0.9-2.2-1.7-4.1-2.9-7c-0.7,3.3-1.1,5.4-1.7,8c5.6,0.8,10.9,1.5,16.2,2.2c0.2-2.5,0.3-4.3,0.5-6.2
			c-0.3-0.1-0.7-0.1-1-0.2c-0.4,1.2-0.7,2.4-1.2,3.9c-2.3-3.9-5.6-4.1-8.1-0.7c-0.2-0.8-0.4-1.6-0.8-3.1
			C-288.9,12.3-289.1,12.9-289.4,13.9z M-169.2,35.1c4.9-0.5,9.8-1,15.1-1.6c0.6-2.9-0.8-4.2-4.2-3.8c-2.5,0.4-5.1,1.2-7.6,1.2
			C-170.2,30.8-170.2,30.6-169.2,35.1z M275.6-177c2.8-2.9,5.2-2.3,6.6,0.8c0.3,0.7,2,1.4,2.8,1.1c1-0.3,2.5-1.9,2.4-2.4
			c-0.8-2.6-0.9-7.2-5.7-3.4c-0.4,0.3-1.7-0.6-2.5-0.6c-1.8,0.1-3.9,0-5.2,0.9c-0.7,0.5-0.7,3.9-0.1,4.3c1.5,0.8,3.5,0.6,5.3,0.7
			c0.2,0,0.4-0.7,0.8-1.4C278.4-177,277.3-177,275.6-177z M147.1-186.2c-0.6,0.5-1.2,1.1-1.9,1.6c0,3,0,6,0,9c0.3,0,0.7,0.1,1,0.1
			c0.4-1.1,0.7-2.2,1.1-3.5c0.5,1.4,1,2.5,1.6,4.3c1.1-1.8,1.8-2.9,2.5-4c0.5,1.3,0.9,2.4,1.3,3.4c1.3-1.8,1.6-3.5,1.4-5.2
			c-0.1-1.5-0.8-2.9-1.2-4.4c-1.3,0.9-2.6,1.8-3.8,2.6C148.6-183.4,147.9-184.8,147.1-186.2z M-91.2-182.7c-1.5-3-4.3-3.4-6.4-1.7
			c-1.5,1.3-3,4.7-2.3,6.2c0.9,1.9,3.9,3.3,6.1,3.6c0.8,0.1,2.2-3.5,3.3-5.3c-0.6-0.5-1.3-1.1-1.9-1.6c-1.6,1.2-3.2,2.5-5.5,4.3
			c0.3-1.7,0-4.1,0.8-4.6C-95.4-182.7-93.3-182.4-91.2-182.7z M11.8-178.2c1.4,1.3,2.5,2.3,3.6,3.3c0.2-1.9-0.6-3.1-0.5-4.2
			c0.6-6.2,0.6-6.3-6.8-5.2c0,1.8-0.1,3.8,0.1,5.7c0.1,1.1,0.8,2.2,1.2,3.3C10.1-176.2,10.9-177.1,11.8-178.2z M-311.3,10.6
			c0.2,2.5,0.3,4.2,0.5,6.1c4.4-1.4,10.3,2.2,11.9-6.1C-303.1,10.6-306.8,10.6-311.3,10.6z M374.6-174.2c-0.3-3.5-0.4-5.6-0.6-7.7
			c-0.4,0-0.8,0-1.2,0c-0.5,1.7-0.9,3.3-1.4,5c-0.3,0-0.6,0-0.9-0.1c-0.3-1.6-0.7-3.2-0.9-4c-1.7-0.2-2.8-0.6-3.9-0.5
			c-1.3,0.1-3.4,0.1-3.8,0.9c-0.6,1.2-0.6,3.2,0,4.4c0.5,0.8,2.4,0.8,3.7,1.1c0.1-0.4,0.2-0.8,0.3-1.1c-0.7-0.4-1.3-0.9-2-1.3
			c0-0.1,0.1-0.3,0.1-0.4C367.4-176.9,370.5-175.7,374.6-174.2z M-290.8,33.3c4.2,0.7,7.8,1.4,11.9,2.1c-0.1-2.3-0.2-3.7-0.3-5.8
			c-1,1.4-1.6,2.3-2.7,3.8c-0.4-2.4-0.7-4-0.8-4.5c-2.5,0.4-4.6,0.9-6.7,1c-2.4,0.1-4.9-0.3-3.6,3.8c0.5-1,0.9-1.8,1.6-3.1
			C-291.1,32.1-290.9,33-290.8,33.3z M350.9,34.6c4.8,0,8.9,0,13.3,0c-0.1-2.1-0.2-4-0.3-5.2c-4.2,0.4-7.9,0.8-11.9,1.1
			C351.8,31.4,351.4,32.7,350.9,34.6z M336.7-185.5c-0.4,0.2-0.8,0.4-1.2,0.6c0,3.2,0,6.4,0,9.6c0.3,0.1,0.7,0.1,1,0.2
			c0.5-1.4,0.9-2.8,1.4-4.2c1.8,1.6,3.4,3.1,5.5,4.9c0-4.2,0-7.3,0-10.5c-0.4,0-0.8,0-1.2,0c-0.2,1.6-0.3,3.2-0.6,5.7
			C339.5-181.8,338.1-183.6,336.7-185.5z M-327.6-178.8c-2.9-2-4.7-4.3-6-4c-1.7,0.4-3,2.7-4.4,4.2c1.4,1.3,2.7,3.7,4.1,3.7
			C-332.3-174.9-330.6-176.8-327.6-178.8z M-321.4-173.8c0.4-0.6,0.9-1.2,1.3-1.8c-0.6-2.8,1.8-7-3.7-7.4c-4.1-0.3-2.3,4.2-4.3,5.7
			C-325.9-176.2-323.6-175-321.4-173.8z M382.5,35c2.9-0.2,5.3,0.1,7.3-0.7c1.2-0.5,2-2.7,2.5-4.3c0.2-0.7-0.5-1.7-0.8-2.6
			c-1,0.8-1.9,1.7-3,2.3c-0.9,0.5-2.1,0.9-3.1,0.8C381.5,29.9,382,32.2,382.5,35z M-113.1-184.9c-1.5,1.1-2.9,1.7-3.8,2.7
			c-1.2,1.3-3.1,3.3-2.8,4.5c1,3.8,4,2.7,6.6,1.8C-113.1-179-113.1-181.8-113.1-184.9z M346.9,30.4c-4.1-0.5-7.7-0.9-11.5-1.4
			c0.2,1.4,0.5,3.4,1,6.8c0.7-2.1,0.9-2.9,1-3.1c0.9,0.7,2.1,2.3,2.7,2.1c1.4-0.5,2.5-1.8,4.1-3.1c0.7,1,1.7,2.2,2.6,3.5
			c0.3-0.1,0.6-0.1,0.9-0.2C347.3,33.4,347.1,31.9,346.9,30.4z M399.5,14.2c-1.4-5.3-4.9-4.1-8.7-3.5c0.5,2.2,1,4.1,1.5,6.1
			c0.3-0.1,0.6-0.2,0.9-0.2c0-1.4,0-2.8,0-4.1c0.2,0,0.4-0.1,0.7-0.1c0.5,1.4,1.1,2.9,1.5,4.1c2.3,0,4.3,0,6.8,0
			c-0.6-2.1-1.1-3.7-1.6-5.3c-0.3,0.1-0.6,0.2-0.9,0.3C399.6,12.2,399.5,13.2,399.5,14.2z M453.8,10.8c-3.6,0.6-6.5,1-9.6,1.5
			c0,0.9,0,2.3,0,3.9c3.3,0,6.4,0,9.6,0C453.8,14.4,453.8,13,453.8,10.8z M383.2-181.1c-0.5-0.6-1.1-1.2-1.6-1.7
			c-2.2,1.2-4.3,2.4-6.5,3.6c1.1,1.5,2.1,3,3.7,5.1c0.2-0.5-0.1,0.2-0.4,0.9c0.6,0.2,1.2,0.4,1.7,0.6
			C381.2-175.5,382.2-178.3,383.2-181.1z M47.3-184.4c-0.1,0.5-0.1,1-0.2,1.6c5.2,1.9,5.2,1.9,7.3,10c1.5-2.3,3.2-3.8,3.3-5.3
			c0.1-1.3-1.6-2.7-3-4.8C53-183.3,50.1-183.9,47.3-184.4z M-318.7-175.1c0.5,0,1,0.1,1.6,0.1c0.7-2,1.4-3.9,2.6-7.3
			c0.9,3.5,1.4,5.5,2.2,8.6c2.7-8.3,1.7-9.4-6.8-8.9C-318.9-180.1-318.8-177.6-318.7-175.1z M-102.8-179.4c-2.2-1.4-3.7-3.2-4.8-2.9
			c-1.6,0.4-2.8,2.2-4.2,3.3c1.5,1.3,2.8,3.2,4.4,3.6C-106.5-175.1-104.9-177.5-102.8-179.4z M356.1-184.5c-0.6,0-1.2-0.1-1.7-0.1
			c0,3.2,0,6.3,0,8.6c2.6,0.2,4.3,0.3,5.7,0.5c-0.1-2-0.2-4.1-0.4-6.5c-0.8,0.3-1.7,0.7-2.6,1.1
			C356.8-182.1,356.5-183.3,356.1-184.5z M348.5-173.3c1.9-2.5,4-4,3.8-5.2c-0.2-1.3-2.3-3.1-3.8-3.4c-1-0.2-3.4,1.9-3.4,3.1
			C345.1-177.3,346.8-175.8,348.5-173.3z M-208.1,11.6c-10.8-0.7-11.3-0.5-10,4.9c0.6-1.6,1.1-2.6,1.7-4.2c0.3,1.7,0.5,2.9,0.8,5
			c0.7-1.8,1-2.6,1.4-3.6c0.5,1.1,1,2,1.5,3.2c1.3-1.5,2.3-2.7,3.3-3.9c0.4,1.1,0.6,2,1.3,4.1C-208.1,14.5-208.1,13.2-208.1,11.6z
			 M-238.8,30.7c-3.8-0.3-6.3-0.6-9-0.8c0,1.4,0,2.9,0,5.5c0.7-2,1-3,1.5-4.7c1,1.8,1.6,3,2.1,4c1.9,0,3.7,0,5.9,0
			C-238.6,32.8-238.7,31.3-238.8,30.7z M-70.5-174.5c0.5-0.5,1-1,1.5-1.5c-0.7-1.9-1.2-4-2.3-5.7c-0.3-0.4-3.2,0-3.8,0.8
			c-0.8,1.1-1.4,3.8-0.7,4.4C-74.4-175.4-72.2-175.1-70.5-174.5z M166-173.7c1.5-2.2,3.2-3.6,3.1-4.9c-0.1-1.2-2.4-3.4-3.3-3.2
			c-1.5,0.4-3.3,2.1-3.6,3.6C162-177.3,164.2-175.8,166-173.7z M440.4,32.9c2,0.6,3.8,1.1,5.6,1.6c0.3-1.2,0.7-2.5,1-3.8
			c-2.9-0.3-5.2-0.5-7.4-0.6c-0.4,1.3-0.8,2.4-1.5,4.6c-0.5-2.8-0.8-4.4-1.1-6c-0.1,0-0.3,0.1-0.4,0.1c0,2.1,0,4.1,0,7.4
			C438.6,34.4,439.7,33.5,440.4,32.9z M-125-183.9c-1.5,2.7-3.1,4.2-2.9,5.4c0.2,1.3,2,2.3,3.2,3.5c1-1.2,2.8-2.4,2.9-3.7
			C-121.6-179.9-123.3-181.3-125-183.9z M378.2,29.9c-2.8,0-5.2-0.2-7.6,0.1c-1.2,0.1-2.5,0.9-3.5,1.7c-0.3,0.3,0.3,2.4,0.6,2.5
			c1.4,0.1,2.9-0.3,4.4-0.3c0.4,0,0.9,0.5,0.9,0.5C374.7,32.9,376.3,31.6,378.2,29.9z M265.4-175.3c0.3,0,0.6,0.1,0.9,0.1
			c0.6-1.6,1.1-3.2,1.9-5.4c0.9,2.4,1.6,3.9,2.2,5.5c0.5-0.1,1.1-0.2,1.6-0.3c-0.2-1.9,0.3-4.5-0.7-5.7c-1.1-1.2-3.7-1-5.8-1.5
			C265.4-179.5,265.4-177.4,265.4-175.3z M25.1-178.7c-2.4-1.8-4.3-3.6-4.7-3.3c-1.4,1-2.7,2.6-3.1,4.2c-0.2,0.6,1.9,2.7,3,2.6
			C21.5-175.3,22.6-176.9,25.1-178.7z M394.4-175.4c0.4,0,0.9-0.1,1.3-0.1c0.4-1.6,0.7-3.2,1.4-5.9c1.3,2.9,2.1,4.7,3,6.5
			c0.3-0.1,0.6-0.3,0.9-0.4c0-2.3,0-4.6,0-6.9c-2.4,0.2-4.5,0.3-6.9,0.5C394.2-179.3,394.3-177.3,394.4-175.4z M313.5,34.1
			c0.1-1.2,0.1-2.6,0.2-3.9c-2.9,0-5.4,0-8,0c0.2,1.6,0.4,2.9,0.5,3.9c1.3,0.3,2.4,0.8,3.4,0.8C310.8,35,312,34.5,313.5,34.1z
			 M-269.8,34.9c-0.3-1.8-0.6-3.3-0.9-4.7c-2,2.1-4.3-0.8-6,0.4c-0.8,0.5-0.7,2.4-1,4C-274.8,34.7-272.6,34.8-269.8,34.9z
			 M420.5,14.8c0.4-0.4,0.9-0.9,1.3-1.3c-1.1-0.8-2.1-2.4-3.1-2.3c-1.9,0-3.7,1-5.5,1.6c0.5,1.2,0.9,2.3,1.4,3.5
			c1.8-0.9,3.6-1.8,5.5-2.6C420.1,13.7,420.3,14.3,420.5,14.8z M413.7-179.6c-1.7-0.9-3.4-1.8-5-2.7c-0.6,1.4-1.8,2.9-1.5,4.1
			c0.4,1.5,2,2.6,2.5,3.2C411.4-177,412.1-177.8,413.7-179.6z M294.4,29.5c0.5,2.4,0.8,3.9,1.4,6.8c1.9-2.1,3.1-3.4,4.4-4.8
			c0.4,0.7,0.8,1.4,1.3,2.2c0.3-0.9,0.6-1.7,1-2.9c0.5,1.3,0.8,2,1.1,2.8C302.8,27.2,298,31.4,294.4,29.5z M160-174.9
			c0.2-0.4,0.3-0.8,0.5-1.2c-0.5-0.6-1-1.1-1.5-1.7c4.4-3.4,0.5-3.7-2.5-5.5c-0.4,2.6-1.4,4.7-0.8,6.3
			C156-175.9,158.5-175.6,160-174.9z M-344.2-185.1c-0.6,0-1.1,0-1.7,0c0,3.4,0,6.8,0,10.6c2.5-0.2,4.7-0.4,6.9-0.6
			c0-0.5,0-0.9,0-1.4c-1.6-0.4-3.2-0.8-4.7-1.2C-343.9-180.4-344-182.7-344.2-185.1z M-231.3,35c4.2-0.6,7.5,0.6,7.9-3.2
			c0.1-0.7-3.1-2.4-4.7-2.2C-229,29.6-229.7,32.2-231.3,35z M-77.6-173.9c-0.2-10-0.2-10-5.6-7.4C-81.6-179.1-80-177.1-77.6-173.9z
			 M391.6-175.3c0.8-7.1,0.8-7.1-4.2-6.1c0,2,0,4,0,6c0.3,0,0.5,0.1,0.8,0.1c0.5-1.3,1-2.7,1.7-4.5
			C390.6-177.9,391.1-176.6,391.6-175.3z M-209.7,35.7c2.6-1.1,4.4-1.8,6.8-2.7c1.3-5.1-4.1-1.7-6.3-4
			C-209.4,31.4-209.5,33-209.7,35.7z M383.4,11c-0.3,1.8-0.7,3.5-1.1,5.9c3-0.9,5.1-1.6,7.8-2.4C391.6,9,385.5,12.7,383.4,11z
			 M364.1,11c-1.8,0.3-3.3,0.3-4.6,0.9c-0.8,0.4-1.4,1.7-1.4,2.6c0,0.7,1.1,1.4,1.7,2.1c1.3-4,3.4,1.5,4.4,0.2
			C364.1,14.4,364.1,12.7,364.1,11z M453.5,27.8c-0.7,2.6-1.2,4.6-1.7,6.6c2.5,0,4.2,0,6.9,0C456.8,32,455.4,30.2,453.5,27.8z
			 M-264.1,35.2c3.4-0.2,5.6-0.3,8-0.4c0-1.5,0-2.7,0-4.9c-0.8,1.6-1.1,2.4-1.5,3.2C-260.7,28.7-261.8,31.9-264.1,35.2z
			 M-171.5,34.7c0-1.9,0-3.7,0-5.6c-2.1,0.6-3.8,1-5.4,1.5c0,1.3,0,2.5,0,5.2c0.8-2.5,1.1-3.5,1.4-4.5c0.2,0,0.4,0.1,0.6,0.1
			c0.1,1.1,0.3,2.2,0.4,3.3C-173.4,34.7-172.4,34.7-171.5,34.7z M42.4-175.7c4.2,0.9,4.6,0.7,3.8-3c-0.3-1.2-1.2-2.3-2-3.3
			c-0.2-0.2-1.3,0.5-2,0.7c0.4,1.1,1,2.2,1.2,3.3C43.5-177.4,42.8-176.7,42.4-175.7z"/>
		<path class="st0" d="M188.1,451.4c-1.8,0.3-3.6,0.7-5.4,0.7c-29.8,0.1-59.7,0.1-89.5,0.1c-1,0-1.9-0.1-2.9-0.2
			c-2-6.6,0.3-12.9-0.3-19.3c-0.6-7.1-0.2-14.3-0.2-21.4c0-6.9,0-13.8-0.7-20.8c0,20.3,0,40.5,0,61.2c-17.7,0-35.1,0-53.1,0
			c2.4-5.2,4.5-10.1,6.9-14.7c0.5-0.9,2.5-1.3,3.9-1.4c4.2-0.2,8.3-0.1,12.5-0.5c-4.6,0-9.3,0-14.3,0c0.2-1.5,0.3-2.6,0.5-3.7
			c-0.2,0.1-0.6,0.1-0.6,0.3c-1,3.1-3.4,3.7-6.3,3.7c-9.3-0.1-18.7,0-28,0.3c10.2,0,20.5,0,31.9,0c-2.7,5.5-4.8,10.5-7.5,15.1
			c-0.6,1-2.9,1.3-4.4,1.3c-11.7,0.1-23.3,0.1-35,0.9c11.3,0,22.5,0,33.8,0c3.1,0,5.5,0.5,3.8,4.5c-2.4,4.8-4.8,9.6-7.2,14.4
			c-1.3,0.6-2.5,1.7-3.8,1.7c-15.5,0.1-31,0.1-46.5,0.1c-0.5,0-0.9-0.2-2.2-0.5c2.5-2.9,4.7-5.4,6.9-8.1c-0.4,0-0.9-0.2-1,0
			c-4.9,8.1-12.3,9.2-21,8.7c-13.1-0.8-26.2-0.8-39.2-0.9c-4.9,0-9.8,0.7-15.6,1.2c0-6.7,0-12.6,0-18.5c0.1-15.7,0.3-31.5,0.2-47.2
			c0-4,0.7-6.2,5.2-7.3c11.5-2.8,22.9-6,34.1-9.7c10.7-3.5,21.6-3.7,32.6-3.6c17,0.1,34,0,50.9,0c10.8,0,21.5-0.4,32.3,0.2
			c5.9,0.4,11.6-0.6,17.5-0.4c6.3,0.2,12.6,0.1,18.9,0.1c6.3,0,12.6,0,18.9-0.7c-6.4,0-12.9-0.2-19.3,0.1c-4.1,0.2-5.3-1.4-5.1-5.2
			c0.2-4.3,0.1-8.6-0.6-13c0,4.5-0.1,9.1,0.1,13.6c0.1,3.2-0.9,4.5-4.2,4.5c-15.3-0.1-30.6-0.2-46-0.1c-3.3,0-4.4-1.4-4.2-4.5
			c0.2-2.7,0-5.3,0-8c0.2-9.9-1.6-8.9,9.2-8.9c15.7-0.1,31.3,0,46.1,0c-0.2-14.6-0.4-29.2-0.6-43.7c0,0,0.3,0,0.3,0l0-0.3
			c15.3,0,30.6,0,46,0.2c2.4,0,4.8,0.9,7.2,1.3c0.6,0.1,1.4,0.8,1.8,0.6c7.2-4.2,15-1.4,22.5-1.8c8.5-0.5,17,0,25.5-0.1
			c3.6,0,5.4,1.1,5.3,5.3c-0.3,11.3-0.4,22.7-0.2,34c0.1,4.2-2.3,4.1-5.1,4.1c-14.3,0-28.7,0-43,0.6c15.8,0,31.6,0,47.8,0
			c0,7.1,0,13.9,0,21.1c-1.8,0.1-3.6,0.4-5.4,0.4c-14,0-28-0.3-42-0.1c-4.3,0.1-5.5-1.5-5.3-5.5c0.3-5.7,0.1-11.4-0.9-17.1
			c0,5.9-0.1,11.7,0.1,17.6c0.1,3.6-1.1,5.1-4.9,4.9c-6.8-0.3-13.6-0.1-20.4,0.9c10.3,0,20.6-0.1,30.8,0c12.3,0.2,24.6,0.6,36.9,0.7
			c9.5,0.1,18.9-0.5,28.4-0.3c6,0.2,12.3,0.6,18.1,2.2c21.3,5.9,42.4,12.3,63.6,18.6c8.2,2.4,7.9,2.5,7.7,10.9
			c-0.2,8.1,0.1,16.3,0.2,24.4c0,2.3,0,4.6,0,7.5c-1.9,0.1-3.5,0.3-5,0.3c-20.3,0-40.6-0.1-60.9-0.1c-14.6,0-29.1,0.1-43.7,0
			c-2.7,0-5.5-0.8-7.5-1.1C187,450.9,187.6,451.1,188.1,451.4C188.1,451.4,188.1,451.4,188.1,451.4z M-10.1,453.1
			c0.1-0.2,0.1-0.4,0.2-0.6c-12.9,0-25.8,0-38.8,0c0,0.2,0,0.4,0,0.6C-35.8,453.1-23,453.1-10.1,453.1z M144.6,327.3
			c-0.1-0.1-0.2-0.1-0.4-0.2c0,11.4,0,22.9,0,34.3c0.1,0,0.2,0,0.4,0C144.6,350,144.6,338.6,144.6,327.3z M-60.1,452.7
			c0-0.1,0-0.2,0-0.4c-10.7,0-21.5,0-32.2,0c0,0.1,0,0.2,0,0.4C-81.6,452.7-70.9,452.7-60.1,452.7z M125.2,435.5
			c0.1,0,0.1-0.1,0.2-0.1c-8.6,0-17.2,0-25.8,0c0,0,0,0.1,0,0.1C108.1,435.5,116.6,435.5,125.2,435.5z"/>
		<path class="st0" d="M249.6,116.2c-17,0-33.4,0-50.6,0c0-2.2-0.2-4,0-5.7c1.2-7.4-2.1-12.4-7.3-17.3c-31.4-30-62.5-60.5-94-90.5
			C92.3-2.6,89.5-8.1,90.1-16c0.8-10.4,0.4-21,0.7-31.5c0-1.6,0.4-3.2,0.6-4.9c11.1,6.1,18.3,5,26.4-4.8c1.8-2.2,3-6,2.5-8.8
			c-1.2-8.2,2.6-15.5,3.1-23.6c42.1,0,84,0,126.2,0C249.6-20.9,249.6,47.5,249.6,116.2z"/>
		<path class="st0" d="M-20.1,193c-17.3,0-34.3,0-51.6,0c0-56.6,0-113.4,0-170.9c3.1,0,6.2,0,9.3,0c14.7,0,29.3-0.2,44,0
			c4.6,0.1,6-1.2,6-5.8c-0.3-24.8-0.2-49.6-0.3-74.5c0-2,0.1-4,0.1-6c-0.1-3.8,2-4.8,5.1-3.5c3.2,1.3,4.8,0.1,5.8-2.6
			c2.2-6.1,4.3-12.3,6.7-19.2c15.4,0,32.5,0,50,0c0.5,2.4,0.8,4.8,1.5,7.1C60.5-69,69.8-60.9,82.9-56.9c3.9,1.2,5.4,2.9,5.4,6.9
			c0.1,13.8,0.6,27.6,0.6,41.5c0,2-1.3,4.5-2.8,6c-33.6,32.9-67.2,65.6-101,98.3c-3.6,3.5-5.3,6.9-5.3,12.1
			c0.2,26.6,0.1,53.3,0.1,80C-20.1,189.4-20.1,191-20.1,193z"/>
		<path class="st0" d="M117.9,118.7c-1.9-4-5.2-4.9-9.3-4.7c-6,0.3-11.9,0.1-18.2,0.1c0-38.5,0-76.4,0-114.4c-0.4,0-0.7,0-1.1,0
			c0,14.2,0,28.4,0,42.7c0,14.5-0.2,29,0.1,43.5c0.1,4.1-1.4,5.3-5.2,5.2c-12.5-0.3-25-0.4-37.4-0.5c-1.4,0-2.9,0.2-4.3,1.1
			c12.4,0,24.8,0,37.2,0c9.6,0,9.6,0,9.6,9.8c0,4,0,7.9,0,12.6c-6.8,0-13.3,0.2-19.7-0.1c-3.3-0.1-5.4,1-7.7,3.4
			c-8.2,8.6-16.8,16.9-26.5,24.9c0-29.4,0-58.8,0-88.2c-0.4,0-0.7,0-1.1,0c0,10.3-0.2,20.6,0.1,30.9c0.1,4.5-1.4,5.7-5.7,5.6
			C17.3,90.3,6,90.5-6.8,90.5c2.1-2.2,3.3-3.6,4.6-4.9C27.1,57.1,56.4,28.7,85.5,0.1c3.1-3.1,5-3.1,8.1,0
			c15.6,15.5,31.3,30.9,47.1,46.2c2.4,2.4,3.6,4.8,3.5,8.3c-0.1,27.6-0.1,55.2-0.1,82.9c0,1.4-0.2,2.9-0.4,5.9
			c-9.1-8.6-17.3-16.3-25.4-24C118.1,119.2,118,118.9,117.9,118.7z"/>
		<path class="st0" d="M-54.7,250.2c11.4,0,22.7,0,34.3,0c0,22.8,0,45.4,0,68.4c-7.4-2.1-13.8-4.7-16.4-12.6
			c1.3,7.7,1.1,8.1,7.8,10.7c7,2.7,9.3,6.9,9,14.4c-0.6,16.8-0.3,33.6-0.1,50.5c0.1,4.2-1.4,5.6-5.5,5.2
			c-12.6-1.1-24.8,0.4-36.9,4.3c-3.4,1.1-7.2,1.5-10.8,1.5c-2.4,0-4.8-1.6-7.3-1.9c-4.4-0.6-8.9-0.8-13.5-1.1c0-0.1-0.2,0.7-0.4,1.5
			c-0.3,0-0.5,0-0.8,0c0-28,0-55.9,0-84.8c5.6,0,11.5-0.3,17.5,0.1c4.6,0.3,5.6-1.4,5.5-5.7c-0.2-9.8,0.2-19.7,0.3-29.5
			c0-3.2,0.9-5,4.3-6.2C-60.6,262.7-56.6,257.2-54.7,250.2z"/>
		<path class="st0" d="M199.1,386.3c0-15,0-29.8,0-44.6c0-5.3,0.1-10.7-0.1-16c-0.2-3.1,0.9-5,3.6-6.4c3.3-1.6,6.5-3.4,9.7-5.2
			c1.3-0.7,3.1-1.6,3.3-2.7c1.1-4.9,4.6-4.8,8.4-4.8c25,0,50-0.1,75-0.1c1.6,0,3.2,0.2,5,0.3c0,30.6,0,60.8,0,91.8
			c-6-0.5-11.6-1.1-17.2-1.5c-1.1-0.1-2.2,0.7-3.3,1.1c-2.2,0.8-3.9,1.6-5.8-1.3c-1-1.6-4.6-1.6-7.1-2.2c-1.3-0.3-2.7-0.3-4.3-0.4
			c-0.1,0.3-0.5,1.4-0.9,2.5c-0.7-0.9-1.4-1.7-2.1-2.6c0,0.4,0,0.7,0,1.1c-4.2-0.6-8.4-0.7-12.5-1.8c-7.6-1.9-15-4.5-22.5-6.6
			c-2-0.6-4.2-0.7-6.4-0.7C214.9,386.3,207.7,386.3,199.1,386.3z"/>
		<path class="st0" d="M273,162.9c20,0,39.1,0,58.5,0c0,28.4,0,56.5,0,84.9c-26.4,0-52.5,0-78.9,0c0-21.8,0-43.6,0-65.9
			c2.9,0.6,5.2,1.3,7.6,1.7c4.3,0.7,7.2-1.2,8.5-5.1C270.4,173.4,271.5,168.3,273,162.9z"/>
		<path class="st0" d="M-261.8,452.4c5.1-1.8,10.2-3.8,15.4-5.4c30-8.9,60-17.8,90-26.7c9.2-2.7,18.4-5.7,28.1-8.6
			c0,13.7,0,26.8,0,40.1c-4.1,0-8.2,0-12.2,0c0,0.3,0,0.6,0,0.9c4,0,8,0,12.7,0c-0.6,6.2,2.9,12.5-2.4,17.2
			c-2.5,2.2-6.5,3.7-9.8,3.8c-33,0.3-65.9,0.2-98.9,0.2c-30.9,0-61.9,0.1-92.8,0.2c-0.3,0-0.6-0.1-1.3-1.3
			C-309.2,465.9-285.5,459.2-261.8,452.4c2.7,0.2,5.3,0.4,8,0.4c24.4,0,48.8,0,73.2,0c10.5,0,21.1,0,31.6,0c0-0.1,0-0.3,0-0.4
			C-186.6,452.4-224.2,452.4-261.8,452.4z"/>
		<path class="st0" d="M199.5,118.7c17.2,0,34,0,51.2,0c0,5.9,0.1,11.2-0.1,16.4c0,1-1.6,2.3-2.7,2.7c-10.6,3.5-16.4,10.2-16.9,19.8
			c-0.4,9.3,5.5,17.4,15.6,21.6c1.5,0.6,3.5,2.5,3.5,3.8c0.2,21.4,0.2,42.9,0.2,64.6c-9.3,0-18.4,0-27.5,0
			c-5-12.9-10-15.2-23.3-10.3C199.5,197.7,199.5,158.2,199.5,118.7z"/>
		<path class="st0" d="M199.6,259c12.1,5.1,15.3,4,22.1-7c0.6-0.9,2-1.8,3-1.8c26.3,0,52.6,0.1,78.9,0.1c0.1,0,0.3,0.2,0.6,0.4
			c0,17.7,0,35.6,0,54c-2.3,0-4.3,0-6.2,0c-25.7,0-51.3,0.1-77,0c-3.6,0-6.1,0.5-6.9,4.6c-0.3,1.4-1.7,2.8-3,3.6
			c-3.6,2.1-7.3,3.8-11.5,5.9C199.6,298.7,199.6,278.9,199.6,259z"/>
		<path class="st0" d="M31.6,272.8c-5,4.8-10,9.6-14.9,14.5c-8.9,8.9-8.1,9.2-16.6,0c-5.7-6.2-11.4-12.5-17-18.7
			c14.7,0,30.2,0,45.8,0c0-0.4,0-0.8,0-1.2c-15.6,0-31.1,0-47.5,0c0-6.7,0-12.8,0-18.9c0-13.5-0.1-27,0-40.4c0-1.6,1.3-3.1,2.1-4.7
			l-0.1-0.1c15,0.1,30,0.5,44.9,0.3c5-0.1,6.2,1.4,6.1,6.1c-0.2,16.5,0.2,33,0,49.5c-0.1,4.4-1.5,8.8-2.4,13.2
			C31.8,272.4,31.7,272.6,31.6,272.8z"/>
		<path class="st0" d="M-127.8,283.3c0,7.4,0,14,0,21c-17.1,0-34,0-51.3,0c0-47.1,0-94.1,0-141.5c8,0,15.8,0,24.3,0
			c0,1.6,0,3.4,0,5.1c0,36.3,0.2,72.6,0,109c0,5,1.3,6.8,6.4,6.5C-141.8,283-135.1,283.3-127.8,283.3z"/>
		<path class="st0" d="M439.3,451.7c22.8,6.7,45.6,13.4,68.4,20.1c1.2,0.4,2.4,0.8,3.4,1.9c-2.6,0-5.1,0-7.7,0
			c-26.8,0-53.6,0.1-80.4,0c-20.6-0.1-41.2-0.4-61.8-0.5c-13.8,0-27.6,0.3-41.4,0.4c-10.5,0-16.7-8.9-13-18.7
			c0.3-0.8,1.6-1.6,2.5-1.7c2.1-0.3,4.3-0.2,6.5-0.2c16.2,0,32.4-0.1,48.7-0.1c22.7,0,45.4,0,68.1-0.1c2.2,0,4.5-0.8,6.7-1.2
			L439.3,451.7z"/>
		<path class="st0" d="M-0.6,365.7c10.2,0,20.3,0.1,30.5-0.1c3.2,0,4.5,0.9,4.3,4.3c-0.2,4.3-0.2,8.7,0,13c0.1,2.9-0.7,4.2-3.9,4.2
			c-15.2-0.1-30.3,0-45.5,0.1c-2.8,0-3.9-0.9-3.9-3.8c0.1-19.1,0.1-38.3,0.1-57.4c0-3.2,1.8-4.2,4.4-4.2c14.8-0.1,29.6-0.2,44.5,0.1
			c1.4,0,4,2.8,4,4.3c0.4,11.8,0.2,23.6,0.3,35.5c0,3.6-2.2,3.5-4.7,3.5c-10,0-20,0-30,0C-0.5,365.4-0.5,365.5-0.6,365.7z"/>
		<path class="st0" d="M146,267.9c-0.4-1.4-1.1-2.8-1.1-4.1c-0.1-18.5-0.1-37-0.1-55.5c0-2.3,0-4.5,3.2-4.5c16.3,0,32.6,0,49.6,0
			c0,12,0.7,23.7-0.3,35.2c-0.4,4.5-3.5,8.7-2,13.8c1.3,4.5,1.9,9.2,3,14.5c-13.8,0-26.4-0.1-39,0c-4.4,0-8.9,0.5-13.3,0.8
			L146,267.9z"/>
		<path class="st0" d="M89.2,321.8c-10.3-0.2-20.6-0.4-30.8-0.5c-6.6-0.1-13.3,0-21.2,0c1.6-2.1,2.3-3.4,3.4-4.5
			c15.4-15.4,30.7-30.9,46.3-46.1c1.1-1.1,5.1-1.1,6.1-0.1c15.7,15.1,31.1,30.6,46.5,46c0.9,0.9,1.3,2.4,2.3,4.3
			c-2.3,0.2-3.7,0.3-5.2,0.3c-14,0-27.9,0-41.9,0c-1.6,0-3.3,0.3-4.9,0.5c0-14.8,0-29.6,0-44.5c-0.2,0-0.4,0-0.7,0
			C89.2,292.2,89.2,307,89.2,321.8z"/>
		<path class="st0" d="M439.4,451.6c-1.8,0.2-3.6,0.6-5.4,0.6c-19.5,0-39,0-58.4,0c-16.7,0-33.5,0.2-50.2,0c-3.3,0-6.6-1.6-9.4-2.3
			c0.2,0.2,0.8,0.8,1.9,1.9c-3.9,0-7.2,0-11,0c0-13,0-25.8,0-39.4c3.2,0.8,6.2,1.4,9.2,2.3c40,11.9,80,23.7,120,35.6
			c1.1,0.3,2.2,0.8,3.2,1.2C439.3,451.7,439.4,451.6,439.4,451.6z"/>
		<path class="st0" d="M-71.9,195.5c17.4,0,34.1,0,51.4,0c0,17.2,0,34.4,0,52c-11,0-22,0-33.3,0c-1-11.4-5.9-19.7-18.1-21.9
			C-71.9,215.6-71.9,205.8-71.9,195.5z"/>
		<path class="st0" d="M89.5,321.9c-0.1,11.3-0.2,22.6-0.3,33.8c0,2.8,0,5.6,0,8.9c-2.1,0.2-4,0.6-6,0.6
			c-14.3,0.1-28.6-0.1-42.9,0.1c-4,0-5.6-1.1-5.5-5.3c0.2-10.5,0-21,0-31.4c0-6,0.9-6.8,7-6.9c15.8,0,31.6-0.1,47.4-0.1
			c0,0,0,0.3,0,0.3L89.5,321.9z"/>
		<path class="st0" d="M-99.3,391.6c-1.9-6.9-4.4-4.3-8.1-2.3c-3,1.6-7.4,0.8-11.2,0.9c-1.9,0-3.7-0.4-6.5-0.8c0-26.9,0-54.5,0-82.6
			c8.8,0,17.7,0,26.8,0c0,27.8,0,55.6,0,83.5C-98.5,390.7-98.9,391.2-99.3,391.6z"/>
		<path class="st0" d="M120.5-98c-2.2,0.5-4.4,0.4-5.8,1.4c-3.6,2.6-6.6,6-10.2,8.7C97.1-82.3,90-76.3,81.9-72
			c-4.3,2.3-10.2,1.6-15.5,1.9c-0.9,0.1-2-1.6-2.8-2.6c-13.9-17.8-4.2-43.9,18.4-49.4C99.5-126.3,116.9-115,120.5-98z"/>
		<path class="st0" d="M191.1,455.1c1.2-0.7,2.4-2,3.5-2c13.6,0,27.3,0.4,40.9,0.4c13.5,0,26.9-0.4,40.4-0.5
			c8.2-0.1,16.4,0.1,24.6,0c2.9,0,4.2,0.9,4.1,4c-0.2,4.3-0.1,8.6,0.1,12.9c0.2,3.2-1.2,3.9-4.2,3.8c-13.2-0.4-26.5-0.9-39.7-0.9
			c-13,0-26.1,0.6-39.1,0.9c-2,0-4-0.3-6,0.1c-6.6,1.1-11.1-1.8-14.5-7C197.8,462.9,194.4,459,191.1,455.1z"/>
		<path class="st0" d="M-14.2,152.3c-4.6-3.8-4.6-9.1-4.6-14.4c0-10.8-0.1-21.6,0.2-32.4c0.1-2.7,1.9-5.4,2.9-8
			c0.7-0.1,1.3-0.1,2-0.2c3,3.3,6,6.6,9,9.9c0,0,0-0.2,0-0.2c8.2,8.2,16.4,16.4,24.6,24.6l0.3,0.3C25,137.3,31.8,141,33,149
			c0,0,0.1-0.1,0.1-0.1c-6.1,6.1-12.1,12.2-18.2,18.4c-1.5,1.8-3,3.7-4.5,5.5c-7,0.1-9.1-6.5-13.8-9.7
			C-7,159.5-10.6,155.9-14.2,152.3z"/>
		<path class="st0" d="M194.7,96.8c1.2,3.9,2.9,6.8,2.9,9.7c0.1,12.8-0.3,25.5-0.7,38.3c-0.1,1.7-1,3.8-2.2,5.1
			c-6.3,6.6-13,12.9-19.4,19.4c-2.4,2.4-4.5,2.5-6.8,0.2c-6.7-6.9-13.6-13.8-20-21c-3.3-3.7,0-6.7,2.5-9.2c12-11.8,24-23.5,36-35.2
			C189.1,102.2,191.2,100.2,194.7,96.8z"/>
		<path class="st0" d="M95.6,268.2c12.5,0,26.4,0,40.3,0c0-0.3,0-0.6,0-1c-14.3,0-28.6,0-44.2,0c1.5-2.5,2.1-4.1,3.2-5.3
			c5.1-5.7,10.4-11.2,15.6-16.9c2.7-2.9,5.7-2.2,7.8-0.1c8.3,8.4,16.3,17,24.3,25.7c0.9,1,1.5,2.7,1.5,4.1
			c0.1,14.3,0.1,28.6,0.1,42.3C128,300.7,111.6,284.3,95.6,268.2z"/>
		<path class="st0" d="M-74.4,304.6c-6.2,0-12,0-17.7,0c-1.1,0-2.2-0.3-3.8-0.6c0-7.6,0-15,0-22.8c-10,0-19.6,0-29.5,0
			c0-10.4,0-20.5,0-31.2c10,0,19.9-0.1,29.9,0.1c0.9,0,2.3,1.3,2.7,2.3c3.2,6.7,8.3,11,15.6,12.9c1.1,0.3,2.7,2.1,2.7,3.2
			C-74.3,280.3-74.4,292.1-74.4,304.6z"/>
		<path class="st0" d="M117.5,177.6c-1.7,0.5-3.7,0.5-4.9,1.4c-4.1,3.4-8.1,6.9-11.7,10.7c-8.3,8.7-18.6,13.1-30.3,14.4
			c-1.4,0.2-3.5-1.6-4.6-3c-12.9-16.9-4-39.9,17.4-45.2C98.3,152.3,114.8,163,117.5,177.6z"/>
		<path class="st0" d="M117.9,118.7c0.1,0.2,0.2,0.4,0.3,0.7c6.5,6.9,13,13.8,19.5,20.6c5.2,5.5,5.4,5.8,0,11
			c-6.7,6.4-13.7,12.6-20.6,18.9c-5.2-8.2-13.2-14.6-24.5-16.4c-1-0.2-2.3-2-2.4-3c-0.2-11.3-0.1-22.5-0.1-34.2
			c8,0,15.8-0.1,23.5,0.1C115.1,116.4,116.5,117.9,117.9,118.7z"/>
		<path class="st0" d="M88.8,153.2c-11.8,1.4-20.8,7.6-26.3,16c-7.8-6.9-15.8-13.8-23.5-21.1c-0.9-0.8-0.7-4.3,0.3-5.4
			c8.1-8.6,16.5-16.9,25-25.1c1-0.9,2.7-1.5,4-1.5c6.6-0.2,13.3-0.1,20.5-0.1C88.8,128.4,88.8,140.6,88.8,153.2z"/>
		<path class="st0" d="M20.3,131.8c0,0-0.3-0.3-0.3-0.3c-4.7-5.1-9.3-10.4-14.2-15.4c-3.3-3.3-6.9-6.2-10.4-9.3c0,0,0,0.2,0,0.2
			c-2.7-3.6-5.4-7.3-8.2-11c2.3-3.2,5.6-4.6,10-4.5c10.8,0.3,21.6,0.1,32.4,0.1c2.2,0,4.5-0.4,4.5,3c0,15.6,0,31.2,0,48
			C28.9,138.5,24.6,135.2,20.3,131.8z"/>
		<path class="st0" d="M84.2,268.6c-15.8,16.1-32,32.7-48.6,49.6c-0.2-1.3-0.5-2.3-0.6-3.4c-0.1-12.5-0.1-25-0.2-37.5
			c0-6.5,1.9-8.6,8.3-8.7C57.3,268.5,71.4,268.6,84.2,268.6z"/>
		<path class="st0" d="M191.5,95.2c-15.4,16.1-30.3,31.6-46,47.9c-0.3-2.2-0.7-3.4-0.7-4.5c0-14.1,0.1-28.3,0-42.4
			c0-3.4,1-4.7,4.5-4.6c11.6,0.2,23.3-0.1,34.9,0.3C187,92,189.8,94.3,191.5,95.2z"/>
		<path class="st0" d="M26.1,471.9c2.4-4.8,4.8-9.6,7.2-14.4c1.2-2.8,2.8-4.7,6.3-4.6c15.3,0.1,30.6,0.1,45.9,0.1
			c1,0,1.9,0.2,3.3,0.4c0,6.7,0,13.2,0,20.2c-3.2,0-6.1,0-9.1,0c-16.5,0-33,0.1-49.4,0C28.8,473.7,27.5,472.6,26.1,471.9z"/>
		<path class="st0" d="M151,470.9c-0.7,0.9-1.4,2.7-2.2,2.7c-19.3,0.1-38.6,0-57.9-0.1c-0.1,0-0.3-0.2-1-0.7
			c0-5.3-0.1-11.1,0.1-16.9c0.1-1,1.9-2.7,3-2.7c15.7-0.2,31.3-0.1,47,0.1c1.6,0,3.1,1.6,4.7,2.4C146.8,460.6,148.9,465.8,151,470.9
			z"/>
		<path class="st0" d="M-98.7,403.6c0,9.5,0,18.2,0,27c0,5.8,0.1,11.7-0.3,17.5c-0.1,1.4-2,3.7-3.1,3.8c-7.8,0.3-15.6,0.2-23.3,0.2
			c0-9.1,0-17.6,0-26c0-3.5,0-7-0.4-10.4c-0.3-2.9,1-4.5,3.4-5.2C-114.6,408.1-106.8,406-98.7,403.6z"/>
		<path class="st0" d="M88.7,239c-6.7,0-12.9,0.1-19-0.1c-1.7-0.1-4-0.5-5-1.7c-9.3-10.7-18.4-21.7-28.2-33.3c9.7,0,18.5,0,27.2,0
			c0.6,0,1.4,0.2,1.9,0.5c6,4.3,11.9,8.9,18,13.1c3.9,2.6,5.5,6,5.3,10.5C88.6,231.5,88.7,235,88.7,239z"/>
		<path class="st0" d="M36.2,147.4c7.7,8.1,15.3,16,22.7,24c0.7,0.8,1.1,2.5,0.7,3.5c-3.1,9.3-1.2,18,3.9,27.8
			c-9.4,0-17.9,0.1-26.4-0.1c-0.9,0-2.4-1.9-2.4-2.9c-0.1-16.9,0-33.9,0.1-50.8C35,148.7,35.4,148.4,36.2,147.4z"/>
		<path class="st0" d="M151,470.9c-2.1-5.1-4.2-10.2-6.3-15.4c-0.4-3.6,2.4-2.5,4-2.5c11.1-0.1,22.2,0,33.4-0.1c2,0,4.1-1,6.1-1.5
			c0,0,0,0,0,0c1,1.2,2,2.5,2.9,3.7c3.4,3.9,6.8,7.7,10.1,11.6c1.2,2,2.3,4,3.7,6.4c-1.5,0.2-2.7,0.5-3.9,0.5
			c-14.8,0.1-29.5,0.2-44.3,0C154.8,473.6,152.9,471.8,151,470.9z"/>
		<path class="st0" d="M447.6,154.6c-5.7,4.1-10.6,8.1-15.9,11.3c-5.3,3.2-11.1,5.6-16.8,8.2c-0.6,0.3-1.8-0.5-2.5-1
			c-6.3-5.6-8.1-14.3-4.6-22.4c3.7-8.6,13.3-13.9,22.3-12.4C439.4,139.8,446.8,147,447.6,154.6z"/>
		<path class="st0" d="M-228.5,155c-2.3,1.6-4.1,2.5-5.6,3.8c-7.4,6.3-15.3,11.5-25.2,13.5c-3.6,0.7-5.7-0.2-7.6-3
			c-4.3-6.3-4.4-14.6,0-21.1c4.6-7,13.9-11.1,21.6-9.5C-235.9,140.3-229.4,146.9-228.5,155z"/>
		<path class="st0" d="M144.2,147.1c0,11,0,20.4,0,29.8c0,7-0.2,14-0.1,20.9c0,3.2-1.1,4.6-4.4,4.2c-2.1-0.2-4.3-0.1-6.5-0.1
			c-9.2-0.2-13.1-4.9-12.5-14.1c0.2-3.3,0.2-6.8-0.8-9.8c-1.4-3.9-0.4-6.4,2.4-9.2c6.1-5.9,11.8-12.1,17.8-18.2
			C141,149.8,142,149,144.2,147.1z"/>
		<path class="st0" d="M39.8,265.7c-4.3,2.1-5-0.7-5-3.9c-0.1-10.1,0-20.3,0-30.4c0-8.4,0-16.9,0-26.8c5.3,6.1,9.7,11,13.9,15.9
			c4.2,4.9,8.2,10,12.4,15c2.5,2.9,2.4,5.3-0.5,8.1c-6.2,5.8-12.2,11.8-18.2,17.8c-1.2,1.2-1.9,3-2.9,4.5
			C39.6,265.9,39.8,265.7,39.8,265.7z"/>
		<path class="st0" d="M143.9,206.6c0,19.8,0,39.5,0,60.1c-1.5-0.9-2.8-1.3-3.6-2.2c-7.2-7.2-14.3-14.4-21.5-21.6
			c-2.9-2.9-3.5-5.1-0.2-8.6c7.9-8.5,15.2-17.6,22.7-26.5c0.5-0.6,0.7-1.5,1.1-2.3C143,205.9,143.4,206.3,143.9,206.6z"/>
		<path class="st0" d="M270.7,154.4c-5.2,3.8-10.7,6.8-14.8,11c-4.6,4.7-10.3,4.9-15.9,6.1c-1,0.2-3-1.7-3.9-3.1
			c-4.5-6.9-4.3-14.4,0.3-21c4.5-6.3,12.6-9.8,19.6-8.1C264.1,141.5,269,146.8,270.7,154.4z"/>
		<path class="st0" d="M145.1,50.9c13.8,13.4,26.8,25.9,40.3,39.1c-13.8,0-26.9,0-40.3,0C145.1,77.2,145.1,64.7,145.1,50.9z"/>
		<path class="st0" d="M-72.2,226.7c2.6,1.4,7.3,2.9,10.7,5.9c5.8,5.1,5.2,7.9-0.8,12.6c-6.3,5-12.6,9.7-20.5,11.9
			c-2.8,0.8-4.2,0.2-5.8-1.9c-4.1-5.4-4.8-11.2-1.8-17.3C-87.2,231.3-81.7,227.9-72.2,226.7z"/>
		<path class="st0" d="M145.9,268.1c16.9,0,33.8,0,50.7,0c0.2,0.6,0.3,1.1,0.5,1.7c-3.7,3.7-7.4,7.4-11.1,11
			c-2.1,2.1-4.4,4.1-6.5,6.2c-8.9,9.1-7.6,7.9-16.2,0c-2.8-2.6-5.7-5.1-8.5-7.6c-2.5-2.3-5-4.6-7.5-6.8c-0.4-1.6-0.8-3.1-1.2-4.7
			C146,267.9,145.9,268.1,145.9,268.1z"/>
		<path class="st0" d="M145.3,147.5c8.1,8.5,15.6,16.1,22.6,24c1,1.1,0.6,4.9-0.5,6c-7.3,7.3-14.9,14.1-22.1,20.8
			C145.3,182.6,145.3,165.7,145.3,147.5z"/>
		<path class="st0" d="M-14.2,152.3c3.6,3.6,7.2,7.2,10.8,10.8c2.1,2.8,4.5,5.4,6,8.4c0.9,1.8,1.4,5.2,0.4,6.3
			c-6.6,7.6-13.7,14.9-21.4,23.1c0-17.4,0-33.8,0-50.5C-16.9,151.1-15.6,151.7-14.2,152.3z"/>
		<path class="st0" d="M197.8,202.1c-17.7,0-34.1,0-51.1,0c7.7-8.2,14.7-16.1,22.2-23.5c1-1,5.3-0.5,6.6,0.7
			C182.8,186.3,189.7,193.7,197.8,202.1z"/>
		<path class="st0" d="M-18.8,270.8c8.3,8.3,15.4,15.5,22.6,22.5c2.1,2.1,2.1,3.9,0.1,6c-6,6.2-12,12.4-18.2,18.5
			c-0.8,0.8-2.3,1.3-3.3,1.1c-0.6-0.1-1.2-1.8-1.2-2.8C-18.8,301.4-18.8,286.9-18.8,270.8z"/>
		<path class="st0" d="M-16.7,203.3c0.4-1.2,0.5-2.8,1.3-3.7c6-6.5,12.2-12.7,18.1-19.2c3-3.3,5.7-3.4,8.8-0.3
			c5.5,5.5,11.1,10.9,16.7,16.4c0,0,0.1,0.1,0.2,0.1c1.1,1.6,2.2,3.1,4.1,5.7c-8.6,0-16.3-0.1-24,0c-8.4,0.1-16.8,0.5-25.2,0.7
			C-16.8,203.2-16.7,203.3-16.7,203.3z"/>
		<path class="st0" d="M28.4,196.7c-0.1-0.1-0.2-0.1-0.2-0.1c-5-5.5-9.8-11.2-14.9-16.5c-2.1-2.2-3.7-4.2-2.9-7.3
			c1.5-1.8,3-3.7,4.5-5.5c6.1-6.1,12.1-12.2,18.2-18.4c0,0-0.1,0.1-0.1,0.1c0.4,0.6,1.2,1.3,1.2,1.9c0.1,16.2,0.1,32.4,0.1,49.4
			C31.8,198.9,30.1,197.8,28.4,196.7z"/>
		<path class="st0" d="M39.8,265.7c0,0-0.1,0.2-0.1,0.2c7.2-6.9,14.5-13.7,21.7-20.7c2.7-2.7,4.9-2.8,7.5,0
			c5.4,5.7,10.9,11.2,16.3,16.9c1,1.1,1.4,2.8,2.6,5.3c-16.4,0-31.6,0-46.7-0.1C40.6,267.3,40.2,266.3,39.8,265.7z"/>
		<path class="st0" d="M197.4,149.7c0,16.9,0,32.9,0,46.6c-6.5-5.8-14.1-12.3-21.2-19.2c-1.1-1-1.4-4.6-0.5-5.5
			C182.5,164.3,189.7,157.3,197.4,149.7z"/>
		<path class="st0" d="M197.5,271.8c0,16,0,31.3,0,47.2c-1.1-0.6-2-0.9-2.6-1.5c-6.4-6.2-12.8-12.5-19.2-18.8
			c-2.4-2.3-1.9-4.3,0.2-6.4C182.9,285.7,189.9,279,197.5,271.8z"/>
		<path class="st0" d="M147.3,272.6c2.5,2.3,5,4.6,7.5,6.8c3.2,3.5,6.3,7.2,9.7,10.6c5.6,5.8,5.7,5.6,0.1,11.2c-6,6-11.9,12-17.9,18
			l0.1-0.1c-0.6-1.6-1.7-3.1-1.8-4.7c-0.2-12.3-0.2-24.6,0-36.9C145,275.8,146.5,274.2,147.3,272.6z"/>
		<path class="st0" d="M-125.5,304.4c0-7.1,0-13.7,0-20.7c9.1,0,18,0,27.3,0c0,6.7,0,13.6,0,20.7
			C-107.2,304.4-116.1,304.4-125.5,304.4z"/>
		<path class="st0" d="M31.6,272.8c0.1-0.2,0.2-0.3,0.3-0.5c0.7,0.6,2.1,1.2,2.1,1.8c0.1,14.6,0.1,29.2,0.1,45.1
			c-2.1-1.6-3.3-2.2-4.3-3.2c-5.7-5.6-11.3-11.3-17-16.8c-2.5-2.4-1.8-4.2,0.2-6.3c4.9-5,9.8-10,14.6-15.1
			C29,276.3,30.2,274.4,31.6,272.8z"/>
		<path class="st0" d="M146.6,319.2c2.4-1.9,5-3.6,7.2-5.7c4.5-4.2,8.9-8.5,13.3-12.8c2.5-2.5,5.4-2.5,7.8-0.3
			c6.7,6.4,13.2,13,20.6,20.4c-2.2,0.2-3.6,0.5-4.9,0.5c-12.9,0-25.9,0-38.8-0.2c-1.7,0-3.3-1.3-5-1.9
			C146.8,319.1,146.6,319.2,146.6,319.2z"/>
		<path class="st0" d="M-125.5,473.3c0-7.1,0-13.4,0-20.2c9,0,17.7,0,26.9,0c0,6.7,0,13.3,0,20.2
			C-107.4,473.3-116.4,473.3-125.5,473.3z"/>
		<path class="st0" d="M30.6,320.8c-14.6,0-29.8,0-46.1,0c7.3-7.2,13.9-14.1,21-20.5c1.1-1,4.8-1.3,5.7-0.3
			C17.9,306.8,24.2,314,30.6,320.8z"/>
		<path class="st0" d="M-27.1-85.3c0-6.1,4.3-11.9,10.3-13.7c5.7-1.8,11.8,0.4,15.3,5.4c2.2,3.2,3,6.1-1.3,8.6
			c-3.8,2.2-7.1,5.4-11,7.6C-21.6-72.8-27.1-76.2-27.1-85.3z"/>
		<path class="st0" d="M209.8,236c1.8,1,4.9,2.1,7.1,4.1c4,3.6,3.4,5.7-1,8.7c-3.2,2.1-6.2,4.5-9.2,6.9c-3.2,2.6-5.7,1.7-8-1.4
			c-2.6-3.5-3.1-7.4-1.1-11.3C199.8,238.5,203.9,237,209.8,236z"/>
		<path class="st0" d="M110.8,241.7c-6.9,7.8-13.1,14.8-20.2,22.8c0-8.2,0-15.3,0-22.8C97,241.7,103.5,241.7,110.8,241.7z"/>
		<path class="st0" d="M67.4,241.3c7.6,0,14.2,0,21.3,0c0,7.2,0,14.1,0,19.7C82.3,255.1,75.2,248.5,67.4,241.3z"/>
		<path class="st0" d="M115.6,231c0.3,4.3-2,7.7-6.1,7.8c-6.1,0.3-12.3,0.1-18.7,0.1c0-3.9,0-7.6,0-11.9
			C99,231.7,107,233.5,115.6,231z"/>
		<path class="st0" d="M124,225.3c0.4-6.9,0.7-13.8,1.1-21.1c5.1,0,10.7,0,17.2,0C135.7,211.8,129.5,218.9,124,225.3z"/>
		<path d="M89.2,321.8c0-14.8,0-29.6,0-44.4c0.2,0,0.4,0,0.7,0c0,14.8,0,29.6,0,44.5c0,0,0-0.1,0-0.1c0,0,0,0.3,0,0.3s-0.2,0-0.3,0
			s-0.1,0-0.1,0c0,0-0.3,0-0.3,0s0-0.3,0-0.3C89.2,321.6,89.2,321.8,89.2,321.8z"/>
		<path class="st0" d="M-317.6,493.2c-9.6,0-19.2,0-28.7,0c0-0.1,0-0.3,0-0.4c9.6,0,19.2,0,28.8,0
			C-317.6,492.9-317.6,493.1-317.6,493.2z"/>
		<path d="M324.8-52.8c-1.6-2.3-1.8-4.5,0.9-6.1c2.4-1.4,4.9-3,7.5-3.4c5.6-0.9,8.6,2.1,9,7.9c0.5,6.9,1,13.9,1.6,21.6
			c-2.2-0.4-4.8-0.9-8.3-1.5c-1.6,1.8-4.2,2-7.4-0.8c-1.1-1-3.7-1.7-4.9-1.1c-9.1,4.3-18.7,1.2-28.6,2.5c0-13.5,0-26.5,0-39.7
			c7,0,14.1-0.6,21.1,0.2c5.9,0.6,8.2,5.2,7.4,12.1c-0.3,2.1-1,4.2-1.6,6.5c1.1,0.5,2.2,1.1,3.4,1.7c1.1,1.8,2.2,3.6,3.8,6.1
			c1.7-4.3,9.4-0.5,8-8C332.6-54.2,329.3-49.2,324.8-52.8z M303.2-51c0,3.5,0,6.3,0,9.6c3.2,0,6.1,0,9.1,0c3.2,0,5-1.4,4.9-4.8
			c-0.1-3.3-1.9-4.8-5.1-4.8C309.3-51,306.5-51,303.2-51z M303.1-57.9c3.1,0,5.8,0.6,8-0.2c1.7-0.6,3.4-2.8,3.8-4.6
			c0.2-0.9-2.3-3.2-3.9-3.6c-2.4-0.5-5.1,0.1-7.9,0.2C303.1-63.2,303.1-60.8,303.1-57.9z"/>
		<path d="M410.8-73.8c2.6,0,5.2,0,7.8,0c0,13.2,0,26.2,0,39.6c-2.9,0-5.3,0-8.2,0c0-5.2,0-10.3,0-15.7c-4.9,0-9.3,0-14.3,0
			c0,5.2,0,10.3,0,15.7c-3,0-5.4,0-8.3,0c0-13,0-26,0-39.3c2.5,0,4.9,0,7.9,0c0,4.7,0,9.5,0,15.2c4.5,0,8.4,0.3,12.2-0.2
			c1.1-0.1,2.6-2.3,2.7-3.6C411-65.9,410.8-69.7,410.8-73.8z"/>
		<path d="M-229.5,102.4c-29.7,0-59.3-0.1-89,0c-5.9,0-11.2-1.3-15.8-5.1c-7-5.8-9.4-14.1-6.6-22.4c3.1-9,10.8-14.9,19.8-14.9
			c60.5,0,121,0,181.5,0c11.5,0,20.7,9.5,20.8,21.2c0.1,11.9-8.6,20.9-20.7,21c-30,0.1-60,0-90,0
			C-229.5,102.3-229.5,102.3-229.5,102.4z M-230,61.6C-230,61.6-230,61.6-230,61.6c-29.3-0.1-58.6-0.1-87.9-0.1
			c-12.6,0-22.1,8.7-22.1,20.1c0,8.7,6.8,20,22.1,19.2c5.3-0.3,10.7,0,16,0c53.5,0,106.9-0.1,160.4,0c5.3,0,10.2-0.9,14.3-4.6
			c6-5.4,8.5-13.9,6-20.8c-3.1-8.6-9.9-13.7-18.8-13.7C-170.1,61.6-200.1,61.6-230,61.6z"/>
		<path d="M-318.9-65.3c0-3.1,0-5.6,0-8.3c10,0,20,0,31.7,0c-1.9,3.9-3,7.4-5.1,10.2c-5.5,7.2-11.4,14.1-17.9,22.1
			c8.2,0,15,0,22.2,0c0,2.7,0,4.8,0,7.2c-10.7,0-21.3,0-32,0c-1.6-4.4-1-8,2.5-11.7c5.7-6,11-12.4,17.2-19.6
			C-307.1-65.3-312.9-65.3-318.9-65.3z"/>
		<path d="M404,60c31.5,0,63-0.1,94.5,0c10.2,0,19.1,8.3,20.4,18.5c1.3,10-5.2,20.3-14.6,22.9c-2.4,0.7-4.9,0.8-7.4,0.8
			c-60.8,0-121.6,0.1-182.5-0.1c-4.1,0-8.5-0.4-12.2-1.9c-9.6-3.9-14.2-14.1-11.9-24.4c2.1-9.6,9.9-15.9,20.2-15.9
			C341.7,60,372.8,60,404,60z M404.3,61.6c-31,0-62,0-93,0c-7.1,0-12.6,2.6-16.5,8.6c-8.6,13.4,0.1,29.9,16.3,30.4
			c13.8,0.5,27.7,0.2,41.5,0.2c48,0,96,0.1,144,0c12.4,0,20.6-8.1,20.5-19.7c-0.1-11.3-8.7-19.4-20.8-19.4
			C465.6,61.6,435,61.6,404.3,61.6z"/>
		<path d="M-182.4-50.7c-1.1,4.8-2,9.6-3.4,14.3c-0.4,1.2-2.4,2.9-3.5,2.8c-1.9-0.1-5-1.1-5.4-2.4c-2.4-7.1-4.2-14.4-6.1-21.6
			c-0.3-1.3-0.5-2.6-0.7-3.9c7.3-1.4,7.5-1.4,9,5.6c0.7,3.1,1.3,6.2,2.7,9.5c1-4.1,2.2-8.1,2.8-12.2c0.6-4.4,3.7-3.2,6.3-3.5
			c3.2-0.4,3.4,1.6,3.7,3.9c0.5,3.8,1.2,7.5,3.1,11.4c0.7-3.4,1.7-6.7,2-10.1c0.5-4.7,2.7-6.4,7.9-4.8c-1.8,8.8-3.5,17.7-5.8,26.4
			c-0.3,1.1-3.9,1.7-5.9,1.7c-1.1,0-2.9-1.5-3.1-2.6c-1.2-4.7-1.9-9.6-2.8-14.4C-181.8-50.7-182.1-50.7-182.4-50.7z"/>
		<path d="M-257.8-34.2c0-13,0-26.1,0-39.6c2.2,0,4.4,0,7.1,0c0,4.4,0,8.7,0,13.7c5.3-3.6,10.3-4.5,15.2-1.2
			c7.2,4.9,8.8,18.2,2.6,24.4c-1.9,1.9-5.1,3.6-7.7,3.7C-246.3-32.9-251.9-33.8-257.8-34.2z M-237.2-47c0-4.4-3.5-9-7-9.1
			c-3.6-0.1-6.6,3.8-6.6,8.5c0,4.5,3.2,7.7,7.4,7.6C-239.7-40.1-237.2-42.9-237.2-47z"/>
		<path d="M-268-52.1c-1.4-5.7-4.7-4.5-8-3.8c-3,0.7-6,1.1-9.5,1.8c1.5-7,4.6-9.2,11.6-9.1c6.9,0,11.4,2.7,12.1,7.9
			c0.6,4.6,0.2,9.3,0.4,13.9c0.1,2.4,0.5,4.8,1,8.3c-2.8-0.6-5.7-1.2-8.7-1.7c-0.7-0.1-1.5,0.1-2.2,0.3c-1.9,0.5-3.8,1.3-5.7,1.4
			c-5.9,0.3-9.7-2.2-10.3-6.4c-0.6-4.7,3-10,8-11.2C-275.7-51.4-272-51.6-268-52.1z M-267.9-46.4c-3,0.9-4.5,1.1-5.8,1.7
			c-1.7,0.8-3.2,2-4.7,3.2c-0.2,0.2,0.5,2.1,0.8,2.1c2.2-0.1,4.8,0,6.6-1C-269.6-41.2-269.2-43.7-267.9-46.4z"/>
		<path d="M-209.4-52.4c-0.8-4.5-3.5-4.5-6.7-3.7c-3.5,0.8-7.1,1.6-11.2,2.5c1.9-7.2,6.3-9.7,14.6-9.4c6.7,0.2,9.3,2,9.8,8.6
			c0.6,6.7,0.1,13.6,0.1,21.6c-2.2-0.7-4.4-1.7-6.7-2.2c-1-0.2-2.2,0.7-3.3,1.1c-8,3.3-14.9-0.2-15.3-7.5c-0.2-4.2,1.8-6.7,5.6-7.8
			C-218.2-50.5-213.8-51.4-209.4-52.4z M-209.1-45.4c-0.4-0.4-0.9-0.8-1.3-1.1c-2.5,0.9-5.2,1.6-7.4,3c-0.7,0.4,0,3,0,4.5
			c2.3-0.5,5-0.5,6.9-1.6C-209.7-41.3-209.7-43.8-209.1-45.4z"/>
		<path d="M-144.2-52.9c-2.7-4.3-5.4-4-8.4-3.1c-2.8,0.9-5.7,1.9-8.9,2.9c0.7-7.7,4.6-10.4,13.2-10.1c7,0.2,10.2,3.1,10.3,9.4
			c0.1,6.6,0,13.2,0,21.1c-3-0.8-5.4-1.6-7.9-2c-1-0.2-2.1,0.9-3.1,0.8c-4-0.2-8.3,0.1-11.7-1.4c-1.8-0.8-3.4-5.4-2.8-7.6
			c0.7-2.7,3.5-5.6,6.2-6.8C-153.6-51.4-149.2-51.7-144.2-52.9z M-146.1-46.3c-2.6,0.6-5,0.8-7,1.7c-1,0.5-1.6,2.3-2,3.6
			c-0.1,0.5,0.8,1.8,1.5,2C-149.9-37.6-145.8-41.3-146.1-46.3z"/>
		<path d="M446.9-32.9c-3.3-0.6-6-1.1-8.7-1.7c0.1-0.3,0.2-0.6,0.3-0.8c-2.5,0.8-5,1.9-7.5,2.2c-5.1,0.5-8.8-2.3-9.5-6.8
			c-0.7-4.5,1.8-8.6,6.5-9.9c3.5-1,7.1-1.5,10.7-2.2c-0.4-4.1-2.3-5.1-5.7-3.8c-3.2,1.2-6.6,1.7-10.5,2.7c2-7.9,6.6-10.5,14.9-9.7
			c5.9,0.6,9.2,4,9.5,10.2C447.1-46.6,446.9-40.4,446.9-32.9z M439.3-46.3c-2.1,0.4-3.5,0.4-4.5,1c-1.8,1.2-3.3,2.7-4.9,4.3
			c-0.1,0.1,1.3,2,1.6,1.9c2.2-0.7,4.6-1.4,6.5-2.7C438.9-42.4,438.8-44.3,439.3-46.3z"/>
		<path d="M474.6-33.1c-3-0.6-5.5-1.2-9.1-2c-2.4,2.2-6.6,3.2-11.3,0.7c-4.3-2.3-4.8-6.4-4.8-10.7c0-5.5,0-10.9,0-16.8
			c2.1,0,4.4,0,7.6,0c0,4.8-0.2,9.5,0.1,14.3c0.1,1.9,0.5,4.2,1.7,5.4c1.2,1.2,3.8,1.9,5.3,1.4c1.4-0.5,3-2.7,3.1-4.3
			c0.4-5.4,0.1-10.9,0.1-16.7c2.6,0,4.8,0,7.4,0C474.6-52.5,474.6-43.5,474.6-33.1z"/>
		<path d="M363.5-61.9c2.6,0,4.6,0,7,0c0,9.2,0,18.3,0,27.6c-5.3,0.4-10.7,1.3-16.1,1.2c-5.6,0-8.7-3.7-8.7-9.3c0-6.5,0-12.9,0-19.7
			c2.7,0,4.9,0,8,0c0,4.4,0,8.7,0,12.9c0,1.5-0.3,3.4,0.4,4.4c1.4,1.8,3.5,4.1,5.2,4.1c1.5-0.1,3.9-3,4.1-4.9
			C363.9-50.7,363.5-56.1,363.5-61.9z"/>
		<path d="M500.8-52.8c-3.5-1-6.4-2-9.3-2.5c-1.8-0.3-3.8-0.1-5.6-0.1c-0.1,0.7-0.2,1.4-0.3,2.1c2.9,0.8,5.8,1.4,8.6,2.3
			c7.5,2.3,10.8,9.3,5.8,14c-2.7,2.6-7.7,3.6-11.8,3.7c-6.5,0.1-9.8-3.3-10.3-9.3c3.4-0.1,6.8-2.2,9.5,2.3c0.6,1.1,3.5,1,5.3,1
			c0.6,0,1.7-2.3,1.5-2.6c-1-1.1-2.3-2.3-3.8-2.8c-2-0.7-4.3-0.7-6.3-1.4c-3.4-1.1-6.5-3.5-5.7-7.2c0.7-3,2.6-6.8,5.2-8.2
			C490.7-65.7,499.3-61.7,500.8-52.8z"/>
		<path d="M494.4-168.1c-6.5,0-13,0.1-19.5,0c-7-0.1-13-6-13-12.5c0-6.6,5.9-12.9,12.7-13c13.1-0.2,26.3-0.2,39.4,0
			c7.6,0.1,12.5,5.9,12.4,13.4c-0.1,6-6.3,13-13.1,12.3C507.1-168.5,500.7-168,494.4-168.1C494.4-168.1,494.4-168.1,494.4-168.1z
			 M494.6-192C494.6-192,494.6-192,494.6-192c-6.3,0-12.7,0-19,0.1c-6.7,0.1-12,5.1-12,11.4c0,6.2,4.8,11,11.6,11
			c12.7,0.1,25.3,0.2,38,0.1c6.9-0.1,11.8-5,11.6-11.6c-0.2-6.4-4.9-10.9-11.8-10.9C506.9-192.1,500.7-192,494.6-192z"/>
		<path d="M294.4,8c4.3-1.1,6.5,0.2,5.5,4.8c2.8-1.1,5.2-2.1,7.9-3.3c0,0.2,0.3,1.1,0.6,2.4c2.2-0.8,4.2-1.5,6.2-2.2
			c1,0.6,2.7,1.4,4,2.6c0.3,0.3-0.6,2-1.3,4c-1.6-0.8-3.8-2.1-6.8-3.7c0.8,1.6,1.3,2.5,1.9,3.7c-6,0-11.8,0-18,0
			C294.4,13.8,294.4,11.1,294.4,8z"/>
		<path d="M-280.7-176.5c-2.1,1.4-4.2,2.8-6.3,4.1c-1.1,0.7-2.4,1.2-3.6,1.5c-1.3,0.3-2.6,0.2-3.9,0.2c0.3-1.2,0.6-2.3,0.9-3.4
			c-6.8,0.5-3.3-5.5-5.2-8.7c1.5-0.2,2.4-0.4,3.7-0.6c0,2.4,0,4.5,0,6.6c0.5,0.1,1,0.3,1.6,0.4c0.6-2.1,1.2-4.3,1.8-6.4
			c0.4-0.1,0.7-0.1,1.1-0.2c0.2,2.4,0.4,4.8,0.5,7.2c0.3,0,0.5,0,0.8,0.1c0-2.3,0-4.7,0-8c3.3,0.7,5.8,1.2,8.2,1.7
			c-0.1,0.5-0.1,1-0.2,1.5c-1.5,0.1-3.1,0.3-4.8,0.4c0,1,0,2,0,3.6c1.7-0.5,3.1-1,4.5-1.4C-281.4-177.4-281.1-177-280.7-176.5z"/>
		<path d="M-326.8,16.9c0-3.2,0-6,0-8.9c3.3-0.2,6.6-0.9,5.6,4.2c3.1-0.7,5.9-1.4,8.6-2.1c-0.2,1.7-0.5,3.9-0.7,6
			C-317.6,16.4-322.1,16.7-326.8,16.9z"/>
		<path d="M-67.8-175.4c0.7-7.9,0.7-7.9,5.8-6.1c-1.3,0.4-2.1,0.6-3.1,0.8c1.2,0.7,2.4,1.3,3.5,1.9c0.8-1,1.4-2.6,2.4-3
			c1.3-0.6,3.2-0.7,4.4-0.1c0.9,0.5,1.9,2.7,1.5,3.5c-0.7,1.4-2.3,3.2-3.6,3.3C-60.4-174.7-64.1-175.2-67.8-175.4z"/>
		<path d="M-169.8,15.1c0.1-0.2-0.1,0.4-0.4,1.9c-0.7-1.6-1-2.3-1.4-3.1c-0.4,0.8-0.9,1.6-1.7,3.1c-0.5-1.8-0.8-2.9-1.3-4.6
			c-0.3,1.6-0.6,2.5-0.7,3.2c-2.5,0-4.9,0-7.3,0c-0.4-3.8,0.5-5.5,5-4.6c3.4,0.7,7.1-0.2,10.7-0.2c3.1,0,3.9,1.7,2.9,5.4
			C-165.9,15.9-167.8,15.5-169.8,15.1z"/>
		<path d="M-132.8-178.8c-0.8,1.1-1.5,2-2.8,3.8c-0.5-1.3-0.9-2.3-1.4-3.8c-0.9,1.9-1.3,2.8-2.1,4.5c-0.7-1.6-1.3-2.5-1.3-3.2
			c0.3-2.5,0.8-4.9,1.2-7.4c1.3,1.1,2.7,2.2,3.7,3.2c1.5-1.1,3.4-2.6,6.4-4.9c-0.3,4.9-0.6,8.1-0.8,11.2c-0.5,0.1-0.9,0.2-1.4,0.3
			C-131.6-176.1-132.1-177.2-132.8-178.8z"/>
		<path d="M-326.9,35.6c0-2.1,0-3.5,0-6c6.5,0,12.8,0,19.2,0c0,0.9,0,2.8,0,4.8c-0.3,0-0.5,0.1-0.8,0.1c-0.2-1.1-0.5-2.2-0.8-3.4
			c-0.9,1.3-1.7,2.3-2.4,3.3c-0.7-0.9-1.5-1.8-2.4-3c-0.4,0.6-0.9,1.4-1.5,2.3c-0.2-0.7-0.5-1.5-1-2.9
			C-317.9,38.5-323.6,32.6-326.9,35.6z"/>
		<path d="M-301.9-185.4c0.5,3.2,0.9,6.4,1.6,11.2c-3.4-1-8-0.9-8.9-2.8C-312.4-183.1-304.4-182-301.9-185.4z"/>
		<path d="M39.2-178c0.2-0.5,0.6-2,1-3.4c0.8,3.2,1.6,6.6-3.7,6.2c-0.4-1.6-0.7-3-1-4.2c-1.5,1.5-3.1,3.1-5.1,5
			c-0.8-2.6-1.2-4.2-1.7-5.8c-0.4,0-0.7,0.1-1.1,0.1c-0.4,1.4-0.8,2.9-1.1,4.3c-0.4,0-0.8,0.1-1.3,0.1c-0.2-2.6-0.4-5.3-0.5-7.2
			c3.6,0.2,6.6-0.1,9.2,0.7C35.8-181.5,37.3-179.5,39.2-178z"/>
		<path d="M-289.4,13.9c0.3-1,0.5-1.6,0.9-3c0.4,1.5,0.6,2.3,0.8,3.1c2.5-3.4,5.8-3.2,8.1,0.7c0.5-1.5,0.8-2.7,1.2-3.9
			c0.3,0.1,0.7,0.1,1,0.2c-0.1,1.8-0.3,3.7-0.5,6.2c-5.3-0.7-10.6-1.4-16.2-2.2c0.6-2.7,1-4.7,1.7-8
			C-291.1,9.9-290.3,11.7-289.4,13.9z"/>
		<path d="M-169.2,35.1c-1-4.5-1-4.3,3.3-4.2c2.5,0.1,5-0.8,7.6-1.2c3.4-0.5,4.8,0.9,4.2,3.8C-159.3,34.1-164.3,34.6-169.2,35.1z"/>
		<path d="M275.6-177c1.8,0,2.9,0,4.3,0c-0.4,0.7-0.6,1.4-0.8,1.4c-1.8-0.1-3.9,0.1-5.3-0.7c-0.6-0.4-0.7-3.7,0.1-4.3
			c1.3-0.9,3.4-0.8,5.2-0.9c0.8,0,2.1,0.9,2.5,0.6c4.9-3.8,4.9,0.8,5.7,3.4c0.2,0.5-1.4,2.1-2.4,2.4c-0.7,0.2-2.4-0.4-2.8-1.1
			C280.8-179.3,278.3-180,275.6-177z"/>
		<path d="M147.1-186.2c0.7,1.4,1.5,2.8,2.1,4c1.2-0.8,2.5-1.7,3.8-2.6c0.4,1.5,1,2.9,1.2,4.4c0.2,1.7-0.1,3.4-1.4,5.2
			c-0.4-1.1-0.8-2.2-1.3-3.4c-0.7,1.1-1.4,2.3-2.5,4c-0.7-1.8-1.1-2.9-1.6-4.3c-0.4,1.3-0.8,2.4-1.1,3.5c-0.3,0-0.7-0.1-1-0.1
			c0-3,0-6,0-9C145.9-185.1,146.5-185.6,147.1-186.2z"/>
		<path d="M-91.2-182.7c-2.1,0.3-4.3,0-5.8,0.9c-0.8,0.5-0.6,2.9-0.8,4.6c2.3-1.8,3.9-3,5.5-4.3c0.6,0.5,1.3,1.1,1.9,1.6
			c-1.1,1.9-2.5,5.5-3.3,5.3c-2.3-0.3-5.2-1.7-6.1-3.6c-0.7-1.4,0.7-4.9,2.3-6.2C-95.5-186.1-92.7-185.7-91.2-182.7z"/>
		<path d="M11.8-178.2c-0.9,1.1-1.7,2-2.4,3c-0.4-1.1-1.1-2.2-1.2-3.3c-0.2-1.9-0.1-3.9-0.1-5.7c7.3-1.2,7.4-1.1,6.8,5.2
			c-0.1,1.1,0.7,2.4,0.5,4.2C14.3-175.9,13.1-177,11.8-178.2z"/>
		<path d="M-311.3,10.6c4.5,0,8.3,0,12.3,0c-1.6,8.3-7.5,4.7-11.9,6.1C-311,14.8-311.1,13.1-311.3,10.6z"/>
		<path d="M374.6-174.2c-4.1-1.5-7.2-2.6-10.4-3.8c0,0.1-0.1,0.3-0.1,0.4c0.7,0.4,1.3,0.9,2,1.3c-0.1,0.4-0.2,0.8-0.3,1.1
			c-1.3-0.3-3.3-0.3-3.7-1.1c-0.7-1.2-0.7-3.2,0-4.4c0.4-0.8,2.5-0.8,3.8-0.9c1.1-0.1,2.2,0.3,3.9,0.5c0.2,0.8,0.5,2.4,0.9,4
			c0.3,0,0.6,0,0.9,0.1c0.5-1.7,0.9-3.3,1.4-5c0.4,0,0.8,0,1.2,0C374.2-179.8,374.4-177.7,374.6-174.2z"/>
		<path d="M-290.8,33.3c-0.1-0.3-0.3-1.2-0.6-2.6c-0.7,1.3-1.1,2.1-1.6,3.1c-1.3-4.1,1.2-3.7,3.6-3.8c2.1-0.1,4.2-0.6,6.7-1
			c0.1,0.5,0.4,2.1,0.8,4.5c1.1-1.5,1.7-2.4,2.7-3.8c0.1,2,0.2,3.4,0.3,5.8C-283,34.7-286.6,34.1-290.8,33.3z"/>
		<path d="M350.9,34.6c0.5-1.9,0.9-3.2,1.1-4.1c4-0.4,7.7-0.7,11.9-1.1c0.1,1.3,0.2,3.1,0.3,5.2C359.8,34.6,355.7,34.6,350.9,34.6z"
			/>
		<path d="M336.7-185.5c1.4,1.8,2.9,3.7,4.9,6.3c0.3-2.4,0.4-4.1,0.6-5.7c0.4,0,0.8,0,1.2,0c0,3.2,0,6.3,0,10.5
			c-2.1-1.8-3.7-3.2-5.5-4.9c-0.4,1.3-0.9,2.8-1.4,4.2c-0.3-0.1-0.7-0.1-1-0.2c0-3.2,0-6.4,0-9.6
			C335.9-185.1,336.3-185.3,336.7-185.5z"/>
		<path d="M-327.6-178.8c-3,1.9-4.6,3.9-6.3,3.9c-1.4,0-2.7-2.4-4.1-3.7c1.5-1.5,2.7-3.8,4.4-4.2
			C-332.3-183.1-330.5-180.8-327.6-178.8z"/>
		<path d="M-321.4-173.8c-2.3-1.2-4.5-2.3-6.8-3.5c2-1.5,0.2-6,4.3-5.7c5.5,0.4,3.1,4.6,3.7,7.4C-320.5-175-320.9-174.4-321.4-173.8
			z"/>
		<path d="M177.8-177.4c-1.4,0.8-2.9,2.3-4.3,2.2c-1.2-0.1-3.1-1.7-3.3-2.9c-0.2-1.1,1.2-2.7,2.1-3.9c1-1.2,2.3-2,3.8-3.4
			c0.6,2.7,1.3,5.4,1.9,8.1C177.9-177.3,177.8-177.4,177.8-177.4z"/>
		<path d="M382.5,35c-0.4-2.8-1-5.1,2.9-4.5c1,0.1,2.1-0.3,3.1-0.8c1.1-0.6,2-1.5,3-2.3c0.3,0.9,1,1.9,0.8,2.6
			c-0.6,1.6-1.3,3.7-2.5,4.3C387.8,35.1,385.4,34.8,382.5,35z"/>
		<path d="M-113.1-184.9c0,3,0,5.9,0,9c-2.6,0.9-5.5,2-6.6-1.8c-0.3-1.2,1.6-3.1,2.8-4.5C-116-183.2-114.6-183.8-113.1-184.9z"/>
		<path d="M346.9,30.4c0.2,1.5,0.5,3,0.7,4.6c-0.3,0.1-0.6,0.1-0.9,0.2c-0.9-1.2-1.9-2.5-2.6-3.5c-1.6,1.3-2.7,2.6-4.1,3.1
			c-0.6,0.2-1.8-1.4-2.7-2.1c-0.1,0.2-0.3,1-1,3.1c-0.5-3.4-0.8-5.4-1-6.8C339.2,29.5,342.8,29.9,346.9,30.4z"/>
		<path d="M399.5,14.2c0.1-1,0.1-1.9,0.2-2.9c0.3-0.1,0.6-0.2,0.9-0.3c0.5,1.6,1,3.3,1.6,5.3c-2.5,0-4.5,0-6.8,0
			c-0.5-1.3-1-2.7-1.5-4.1c-0.2,0-0.4,0.1-0.7,0.1c0,1.4,0,2.8,0,4.1c-0.3,0.1-0.6,0.2-0.9,0.2c-0.5-2-1-3.9-1.5-6.1
			C394.6,10,398.1,8.9,399.5,14.2z"/>
		<path d="M453.8,10.8c0,2.2,0,3.6,0,5.4c-3.2,0-6.3,0-9.6,0c0-1.6,0-3,0-3.9C447.3,11.8,450.2,11.4,453.8,10.8z"/>
		<path d="M383.2-181.1c-1,2.8-2,5.6-3,8.5c-0.6-0.2-1.2-0.4-1.7-0.6c0.3-0.7,0.6-1.3,0.4-0.9c-1.5-2.1-2.6-3.6-3.7-5.1
			c2.2-1.2,4.3-2.4,6.5-3.6C382.1-182.3,382.7-181.7,383.2-181.1z"/>
		<path d="M47.3-184.4c2.9,0.6,5.7,1.1,7.4,1.5c1.4,2.1,3.1,3.5,3,4.8c-0.1,1.6-1.7,3-3.3,5.3c-2.1-8.2-2.1-8.2-7.3-10
			C47.1-183.4,47.2-183.9,47.3-184.4z"/>
		<path d="M-318.7-175.1c-0.1-2.5-0.3-5-0.4-7.4c8.5-0.5,9.5,0.5,6.8,8.9c-0.8-3.1-1.3-5.1-2.2-8.6c-1.2,3.4-1.9,5.4-2.6,7.3
			C-317.6-175.1-318.1-175.1-318.7-175.1z"/>
		<path d="M-102.8-179.4c-2.1,1.9-3.6,4.3-4.5,4.1c-1.7-0.4-3-2.3-4.4-3.6c1.4-1.2,2.6-3,4.2-3.3
			C-106.5-182.6-105-180.8-102.8-179.4z"/>
		<path d="M356.1-184.5c0.3,1.2,0.7,2.4,1,3.7c0.9-0.4,1.8-0.8,2.6-1.1c0.1,2.3,0.2,4.4,0.4,6.5c-1.4-0.1-3.1-0.2-5.7-0.5
			c0-2.3,0-5.5,0-8.6C355-184.6,355.6-184.6,356.1-184.5z"/>
		<path d="M348.5-173.3c-1.7-2.6-3.4-4.1-3.4-5.5c0-1.1,2.4-3.2,3.4-3.1c1.5,0.2,3.6,2,3.8,3.4C352.5-177.2,350.5-175.7,348.5-173.3
			z"/>
		<path d="M-208.1,11.6c0,1.6,0,2.9,0,5.6c-0.7-2.1-0.9-3-1.3-4.1c-1,1.2-2,2.3-3.3,3.9c-0.5-1.1-1-2.1-1.5-3.2
			c-0.4,0.9-0.7,1.8-1.4,3.6c-0.3-2.1-0.5-3.3-0.8-5c-0.6,1.6-1.1,2.6-1.7,4.2C-219.4,11.1-218.9,10.8-208.1,11.6z"/>
		<path d="M-238.8,30.7c0.1,0.6,0.2,2.1,0.4,4c-2.1,0-4,0-5.9,0c-0.5-1-1.1-2.1-2.1-4c-0.6,1.7-0.9,2.7-1.5,4.7c0-2.6,0-4.1,0-5.5
			C-245.1,30.2-242.6,30.4-238.8,30.7z"/>
		<path d="M-70.5-174.5c-1.8-0.6-4-0.9-5.2-2c-0.6-0.6-0.1-3.3,0.7-4.4c0.6-0.8,3.5-1.2,3.8-0.8c1.1,1.7,1.6,3.8,2.3,5.7
			C-69.4-175.5-69.9-175-70.5-174.5z"/>
		<path d="M166-173.7c-1.8-2-4-3.5-3.8-4.5c0.3-1.5,2.1-3.2,3.6-3.6c0.8-0.2,3.1,1.9,3.3,3.2C169.2-177.4,167.5-175.9,166-173.7z"/>
		<path d="M177.9-177.3c0.9-1.7,1.5-3.9,2.9-4.8c0.9-0.5,3.1,1,4.7,1.7c-0.1,0.5-0.2,0.9-0.3,1.4c-1.3,0.6-2.5,1.2-4.3,2
			c1.4,0.1,2.3,0.1,3.2,0.1c-2.7,2.8-2.7,2.8-6.4-0.5C177.8-177.4,177.9-177.3,177.9-177.3z"/>
		<path d="M440.4,32.9c-0.7,0.6-1.9,1.5-3.8,3.2c0-3.3,0-5.3,0-7.4c0.1,0,0.3-0.1,0.4-0.1c0.3,1.6,0.6,3.2,1.1,6
			c0.7-2.2,1.1-3.3,1.5-4.6c2.2,0.2,4.5,0.4,7.4,0.6c-0.4,1.3-0.7,2.5-1,3.8C444.2,34,442.4,33.5,440.4,32.9z"/>
		<path d="M-125-183.9c1.7,2.6,3.3,4,3.2,5.1c-0.1,1.3-1.9,2.5-2.9,3.7c-1.1-1.1-3-2.2-3.2-3.5C-128-179.7-126.5-181.2-125-183.9z"
			/>
		<path d="M378.2,29.9c-2,1.7-3.5,3-5.3,4.4c0,0-0.5-0.5-0.9-0.5c-1.5,0-2.9,0.4-4.4,0.3c-0.3,0-0.9-2.2-0.6-2.5
			c0.9-0.8,2.2-1.6,3.5-1.7C373,29.8,375.4,29.9,378.2,29.9z"/>
		<path d="M265.4-175.3c0-2.1,0-4.2,0-7.3c2.1,0.5,4.7,0.3,5.8,1.5c1.1,1.2,0.6,3.7,0.7,5.7c-0.5,0.1-1.1,0.2-1.6,0.3
			c-0.6-1.6-1.2-3.1-2.2-5.5c-0.8,2.2-1.3,3.8-1.9,5.4C266-175.3,265.7-175.3,265.4-175.3z"/>
		<path d="M25.1-178.7c-2.5,1.9-3.6,3.4-4.8,3.5c-1,0-3.1-2.1-3-2.6c0.5-1.6,1.8-3.1,3.1-4.2C20.8-182.3,22.7-180.5,25.1-178.7z"/>
		<path d="M394.4-175.4c-0.1-2-0.2-3.9-0.3-6.3c2.4-0.2,4.5-0.4,6.9-0.5c0,2.4,0,4.7,0,6.9c-0.3,0.1-0.6,0.3-0.9,0.4
			c-0.8-1.8-1.7-3.6-3-6.5c-0.6,2.7-1,4.3-1.4,5.9C395.3-175.4,394.8-175.4,394.4-175.4z"/>
		<path d="M313.5,34.1c-1.5,0.4-2.7,0.8-3.9,0.9c-1.1,0-2.1-0.5-3.4-0.8c-0.1-1-0.3-2.3-0.5-3.9c2.6,0,5.1,0,8,0
			C313.6,31.6,313.5,32.9,313.5,34.1z"/>
		<path d="M-269.8,34.9c-2.8-0.1-5-0.2-8-0.4c0.4-1.5,0.2-3.4,1-4c1.7-1.2,4.1,1.7,6-0.4C-270.4,31.7-270.2,33.2-269.8,34.9z"/>
		<path d="M420.5,14.8c-0.2-0.6-0.4-1.1-0.5-1.2c-1.8,0.9-3.6,1.8-5.5,2.6c-0.5-1.2-0.9-2.3-1.4-3.5c1.8-0.6,3.7-1.6,5.5-1.6
			c1,0,2.1,1.5,3.1,2.3C421.4,14,421,14.4,420.5,14.8z"/>
		<path d="M413.7-179.6c-1.6,1.9-2.3,2.7-4,4.6c-0.5-0.6-2.2-1.7-2.5-3.2c-0.3-1.2,1-2.7,1.5-4.1C410.3-181.5,412-180.6,413.7-179.6
			z"/>
		<path d="M294.4,29.5c3.5,1.9,8.4-2.3,9.2,4.1c-0.3-0.7-0.6-1.5-1.1-2.8c-0.4,1.3-0.7,2.1-1,2.9c-0.4-0.8-0.9-1.6-1.3-2.2
			c-1.3,1.4-2.5,2.7-4.4,4.8C295.3,33.4,294.9,31.9,294.4,29.5z"/>
		<path d="M160-174.9c-1.5-0.7-4-1-4.3-2.1c-0.5-1.6,0.4-3.7,0.8-6.3c2.9,1.8,6.9,2.1,2.5,5.5c0.5,0.6,1,1.1,1.5,1.7
			C160.3-175.7,160.2-175.3,160-174.9z"/>
		<path d="M-344.2-185.1c0.2,2.4,0.3,4.7,0.5,7.4c1.5,0.4,3.1,0.8,4.7,1.2c0,0.5,0,0.9,0,1.4c-2.2,0.2-4.4,0.4-6.9,0.6
			c0-3.8,0-7.2,0-10.6C-345.3-185.1-344.8-185.1-344.2-185.1z"/>
		<path d="M-231.3,35c1.5-2.7,2.3-5.4,3.2-5.5c1.6-0.1,4.7,1.6,4.7,2.2C-223.8,35.6-227.1,34.3-231.3,35z"/>
		<path d="M-77.6-173.9c-2.4-3.1-4-5.2-5.6-7.4C-77.8-184-77.8-184-77.6-173.9z"/>
		<path d="M391.6-175.3c-0.5-1.3-1-2.7-1.7-4.5c-0.7,1.9-1.2,3.2-1.7,4.5c-0.3,0-0.5-0.1-0.8-0.1c0-2,0-4,0-6
			C392.4-182.4,392.4-182.4,391.6-175.3z"/>
		<path d="M-209.7,35.7c0.2-2.7,0.3-4.3,0.5-6.8c2.2,2.3,7.5-1.1,6.3,4C-205.3,33.9-207.1,34.6-209.7,35.7z"/>
		<path d="M383.4,11c2,1.8,8.2-2,6.7,3.5c-2.7,0.8-4.8,1.5-7.8,2.4C382.7,14.5,383.1,12.8,383.4,11z"/>
		<path d="M364.1,11c0,1.7,0,3.4,0,5.8c-1,1.3-3.1-4.2-4.4-0.2c-0.6-0.7-1.7-1.4-1.7-2.1c0-0.9,0.7-2.2,1.4-2.6
			C360.7,11.3,362.3,11.3,364.1,11z"/>
		<path d="M453.5,27.8c1.9,2.5,3.3,4.2,5.2,6.6c-2.7,0-4.4,0-6.9,0C452.3,32.3,452.8,30.3,453.5,27.8z"/>
		<path d="M-264.1,35.2c2.3-3.2,3.3-6.5,6.5-2.1c0.4-0.8,0.7-1.6,1.5-3.2c0,2.2,0,3.4,0,4.9C-258.4,34.9-260.7,35-264.1,35.2z"/>
		<path d="M-171.5,34.7c-0.9,0-1.9,0-2.9,0c-0.1-1.1-0.3-2.2-0.4-3.3c-0.2,0-0.4-0.1-0.6-0.1c-0.3,1-0.6,2-1.4,4.5
			c0-2.7,0-3.9,0-5.2c1.6-0.4,3.2-0.9,5.4-1.5C-171.5,31-171.5,32.9-171.5,34.7z"/>
		<path d="M42.4-175.7c0.4-1,1.1-1.7,1-2.3c-0.2-1.1-0.8-2.2-1.2-3.3c0.7-0.3,1.8-0.9,2-0.7c0.8,1,1.7,2.1,2,3.3
			C47-175,46.6-174.8,42.4-175.7z"/>
		<path d="M-10.1,453.1c-12.9,0-25.7,0-38.6,0c0-0.2,0-0.4,0-0.6c12.9,0,25.8,0,38.8,0C-10,452.7-10,452.9-10.1,453.1z"/>
		<path d="M144.6,327.3c0,11.4,0,22.8,0,34.1c-0.1,0-0.2,0-0.4,0c0-11.4,0-22.9,0-34.3C144.4,327.1,144.5,327.2,144.6,327.3z"/>
		<path d="M-60.1,452.7c-10.7,0-21.5,0-32.2,0c0-0.1,0-0.2,0-0.4c10.7,0,21.5,0,32.2,0C-60.1,452.5-60.1,452.6-60.1,452.7z"/>
		<path d="M125.2,435.5c-8.5,0-17.1,0-25.6,0c0,0,0-0.1,0-0.1c8.6,0,17.2,0,25.8,0C125.3,435.4,125.2,435.5,125.2,435.5z"/>
		<path d="M-261.8,452.4c37.6,0,75.2,0,112.7,0c0,0.1,0,0.3,0,0.4c-10.5,0-21.1,0-31.6,0c-24.4,0-48.8,0-73.2,0
			C-256.5,452.8-259.1,452.5-261.8,452.4C-261.8,452.4-261.8,452.4-261.8,452.4z"/>
		<path d="M-4.6,107c3.5,3.1,7.2,6,10.4,9.3c4.9,5,9.5,10.2,14.2,15.4C11.8,123.4,3.6,115.2-4.6,107z"/>
		<path d="M33.1,148.9c-6.1,6.1-12.1,12.2-18.2,18.4C21,161.2,27,155.1,33.1,148.9z"/>
		<path class="st0" d="M303.2-51c3.3,0,6.1,0,8.9,0c3.2,0,4.9,1.5,5.1,4.8c0.1,3.4-1.7,4.8-4.9,4.8c-3,0-5.9,0-9.1,0
			C303.2-44.7,303.2-47.5,303.2-51z"/>
		<path class="st0" d="M303.1-57.9c0-2.9,0-5.3,0-8.2c2.7-0.1,5.4-0.7,7.9-0.2c1.6,0.4,4.1,2.6,3.9,3.6c-0.4,1.8-2.1,4-3.8,4.6
			C308.9-57.3,306.2-57.9,303.1-57.9z"/>
		<path class="st0" d="M324.8-52.8c4.5,3.7,7.8-1.4,11.9-2c1.4,7.4-6.2,3.7-8,8c-1.6-2.5-2.7-4.3-3.8-6.1
			C324.9-53,324.8-52.8,324.8-52.8z"/>
		<path class="st0" d="M-230,61.6c30,0,60,0,89.9,0c8.9,0,15.7,5.1,18.8,13.7c2.5,6.9,0,15.4-6,20.8c-4.1,3.7-9,4.6-14.3,4.6
			c-53.5,0-106.9,0-160.4,0c-5.3,0-10.7-0.2-16,0c-15.3,0.8-22.1-10.5-22.1-19.2c0-11.4,9.4-20.1,22.1-20.1
			C-288.7,61.5-259.4,61.5-230,61.6C-230,61.6-230,61.6-230,61.6z M-190.9,83.8c3.9-0.5,8.4,2.6,11.7-2.1c0.5,0.7,1,1.6,1.7,2.7
			c0.6-1.4,1-2.2,1-2.2c2.1,1,3.9,1.9,6.1,2.9c1.2-4.6-0.2-6.1-3.7-6c-2.5,0.1-4.9,0.4-7.4,0.3c-3-0.2-6.1-0.7-9.4-1.1
			C-190.9,79.4-190.9,81.5-190.9,83.8z M-220.2,79.9c-1.9-0.1-3.4-0.6-4.7-0.2c-0.6,0.2-1.2,2.7-1.1,2.8c1.2,0.8,2.6,1.4,4,1.6
			c2.9,0.3,5.8,0.4,8.7,0.1c1-0.1,1.8-1.8,2.7-2.7c-0.9-0.7-1.7-1.5-2.7-2.1c-1.6-0.9-3.3-1.6-5-2.3c-0.2-0.1-0.6,0-1.1,0.1
			C-219.6,78.2-220,79.5-220.2,79.9z M-316.1,83.2c0.1,0.4,0.2,0.8,0.3,1.2c3.3,0,6.6,0.2,9.8-0.2c0.7-0.1,1.1-2.5,1.6-3.8
			c-1.4-0.4-2.8-1-4.2-1c-1.5,0-3,0.6-4.6,1c-0.1-0.4-0.1-0.9-0.2-1.3c1.1-0.3,2.1-0.7,3.2-1c-0.1-0.5-0.2-1-0.3-1.5
			c-2,0.4-3.9,0.9-5.9,1.3c0.8,1.7,1.5,3.4,2.2,5C-314.6,83-315.3,83.1-316.1,83.2z M-275.8,83.8c3.2,0,5.8,0,8.3,0
			c0-2.4,0-4.6,0-6.3c-2.8,1-5.3,1.9-8.3,3C-275.8,80.9-275.8,82.4-275.8,83.8z M-204.5,81.3c0.5,1,1,1.9,1.7,3.3
			c0.8-1.3,1.4-2.1,1.9-3c0.7,1,1.3,1.8,2.3,3.1c0.8-6-0.2-6.5-8.1-5c0,1.4,0,2.7,0,5.6C-205.5,83.1-205,82.3-204.5,81.3z
			 M-291,83.9c-1.6-2.8-2.9-5-4.2-7.2c-0.4,0.2-0.8,0.4-1.3,0.5c0,2.2,0,4.4,0,6.7C-294.9,83.9-293.5,83.9-291,83.9z M-243.6,77.6
			c-1.5,1.9-3,3-2.9,3.9c0.1,1.1,1.7,2,2.6,3c1-0.9,2.5-1.8,2.7-2.8C-241,80.8-242.4,79.6-243.6,77.6z M-235.6,82.3
			c1.8,0.7,3.5,1.3,5.5,2c-0.1-5.8-0.5-6-7-4.6c0.1,1.4,0.1,2.7,0.3,5.4C-236,83.2-235.7,82.5-235.6,82.3z"/>
		<path class="st0" d="M404.3,61.6c30.7,0,61.3,0,92,0c12.1,0,20.8,8.1,20.8,19.4c0.1,11.6-8.1,19.7-20.5,19.7c-48,0.1-96,0-144,0
			c-13.8,0-27.7,0.3-41.5-0.2c-16.3-0.5-25-17.1-16.3-30.4c3.9-6,9.4-8.6,16.5-8.6C342.3,61.6,373.3,61.6,404.3,61.6z M436.4,83.9
			c0.4,0.1,0.8,0.3,1.2,0.4c0.6-1,1.3-2,1.8-2.7c0.6,0.8,1.2,1.6,1.8,2.4c0.5-0.8,0.9-1.6,0.7-1.2c2.6,0.5,4.8,1.1,7,1.2
			c1,0,1.9-1.2,2.6-1.6c6.1,3.5,13,0.6,19.9,1.8c-1-2.2-1.6-3.6-2.6-5.7c-4.1,3-10.3-2.8-13.4,4.7c-0.6-2.4-1-4.2-1.6-7
			c-5.7,7-11.6,1.9-17.5,2C436.4,80.1,436.4,82,436.4,83.9z M358.9,78.1c-3.5,0.6-8.9,2.4-9.4,1.5c-3.4-6.4-4.8-0.1-7,0.8
			c-1.2-1-2.3-2-4.1-3.6c0,2.8,0,4.8,0,6.6c4.9,0,10,0,15,0c0-0.3-0.1-0.6-0.1-0.9c1.8,0.6,3.5,1.2,5.7,1.9
			C358.9,81.6,358.9,79.4,358.9,78.1z M418.2,81.3c0.6,0.9,1.2,2.6,2,2.7c3.1,0.3,6.2,0.3,9.4,0.1c0.7,0,1.9-1.3,1.8-1.9
			c-0.2-1.1-0.9-2.4-1.8-3.1c-1.1-0.8-2.6-1.2-4-1.7c-2.5,1-5.1,0.8-7.7,1.1c-1.1,0.1-2.8,0.9-3,1.7c-0.2,1.2,0.6,2.6,1.3,5
			C417.3,83.2,417.8,82.2,418.2,81.3z M384.1,83.7c3.5,0,6.9,0,10.8,0c-0.4-1.9-0.8-3.2-1-4.1c-3.6-0.3-6.6-0.6-9.8-0.8
			C384.1,80.4,384.1,82,384.1,83.7z M380,78.4c-2.8,0.3-5.1,0.3-7.3,0.8c-1.1,0.3-2,1.5-3,2.3c0.7,0.9,1.4,2.5,2.2,2.5
			c2.6,0.2,5.2-0.2,8-0.3C380,81.6,380,79.6,380,78.4z M395.9,84c3.5-0.4,6.2-0.7,8.9-1c0.1-0.8,0.1-1.5,0.2-2.3
			c-2.9-1-5.7-1.9-9.6-3.2C395.6,79.9,395.7,81.8,395.9,84z"/>
		<path class="st0" d="M-237.2-47c0,4.1-2.5,6.9-6.2,7c-4.2,0.1-7.4-3.1-7.4-7.6c0-4.7,3-8.6,6.6-8.5C-240.7-56-237.2-51.4-237.2-47
			z"/>
		<path class="st0" d="M-267.9-46.4c-1.3,2.8-1.7,5.2-3.1,6c-1.8,1-4.4,0.9-6.6,1c-0.2,0-1-1.9-0.8-2.1c1.5-1.2,3-2.3,4.7-3.2
			C-272.3-45.3-270.8-45.6-267.9-46.4z"/>
		<path class="st0" d="M-209.1-45.4c-0.5,1.6-0.6,4.1-1.7,4.7c-2,1.1-4.6,1.1-6.9,1.6c0-1.6-0.7-4.1,0-4.5c2.2-1.4,4.9-2,7.4-3
			C-210-46.2-209.6-45.8-209.1-45.4z"/>
		<path class="st0" d="M-146.1-46.3c0.4,5-3.7,8.7-7.5,7.4c-0.7-0.2-1.7-1.5-1.5-2c0.3-1.3,1-3.1,2-3.6
			C-151.2-45.5-148.8-45.7-146.1-46.3z"/>
		<path class="st0" d="M439.3-46.3c-0.5,2-0.4,3.9-1.3,4.5c-1.9,1.3-4.3,2-6.5,2.7c-0.3,0.1-1.7-1.8-1.6-1.9
			c1.5-1.5,3.1-3.1,4.9-4.3C435.8-45.9,437.2-45.8,439.3-46.3z"/>
		<path class="st0" d="M494.6-192c6.2,0,12.3-0.1,18.5,0c6.9,0.1,11.6,4.6,11.8,10.9c0.2,6.5-4.7,11.5-11.6,11.6
			c-12.7,0.1-25.3,0.1-38-0.1c-6.8-0.1-11.7-4.8-11.6-11c0-6.3,5.3-11.4,12-11.4C481.9-192,488.3-192,494.6-192
			C494.6-192,494.6-192,494.6-192z M490.1-177.4c0.9-2.2,1.4-3.4,1.5-3.6c2.3,1.2,4.2,2.6,6.4,3.2c0.7,0.2,2.6-1.6,2.7-2.5
			c0-0.9-1.5-2.7-2.5-2.8c-2.5-0.3-5.2,0.2-8,0.3C490.1-181.3,490.1-179.9,490.1-177.4z M488-183.8c0-0.4-0.1-0.8-0.1-1.2
			c-1.3,0.3-2.6,0.6-3.9,0.9c0.9,1.6,1.8,3.2,2.9,5.1c-1.1,0-2,0-2.9,0c0,0.4,0.1,0.9,0.1,1.3c1.5-0.3,3-0.6,4.5-0.9
			c-0.9-1.7-1.9-3.4-2.8-5.1C486.3-183.7,487.2-183.8,488-183.8z"/>
		<path d="M-190.9,83.8c0-2.3,0-4.4,0-5.5c3.3,0.4,6.3,0.9,9.4,1.1c2.5,0.1,4.9-0.2,7.4-0.3c3.4-0.1,4.9,1.4,3.7,6
			c-2.2-1-4-1.9-6.1-2.9c0,0-0.4,0.8-1,2.2c-0.7-1.1-1.2-1.9-1.7-2.7C-182.5,86.4-187,83.3-190.9,83.8z"/>
		<path d="M-220.2,79.9c0.1-0.4,0.5-1.6,0.9-2.8c0.5-0.1,0.8-0.2,1.1-0.1c1.7,0.7,3.4,1.4,5,2.3c1,0.5,1.8,1.4,2.7,2.1
			c-0.9,1-1.7,2.6-2.7,2.7c-2.9,0.3-5.8,0.2-8.7-0.1c-1.4-0.1-2.8-0.8-4-1.6c-0.2-0.1,0.5-2.6,1.1-2.8
			C-223.6,79.3-222.1,79.7-220.2,79.9z"/>
		<path d="M-316.1,83.2c0.8-0.1,1.5-0.2,2-0.3c-0.7-1.6-1.5-3.3-2.2-5c2-0.4,3.9-0.9,5.9-1.3c0.1,0.5,0.2,1,0.3,1.5
			c-1.1,0.3-2.1,0.7-3.2,1c0.1,0.4,0.1,0.9,0.2,1.3c1.5-0.4,3-1,4.6-1c1.4,0,2.8,0.6,4.2,1c-0.5,1.3-0.9,3.7-1.6,3.8
			c-3.2,0.4-6.6,0.2-9.8,0.2C-315.9,84-316,83.6-316.1,83.2z"/>
		<path d="M-275.8,83.8c0-1.4,0-2.8,0-3.4c3-1.1,5.5-2,8.3-3c0,1.8,0,3.9,0,6.3C-269.9,83.8-272.5,83.8-275.8,83.8z"/>
		<path d="M-204.5,81.3c-0.5,1-1,1.8-2.2,3.9c0-2.8,0-4.2,0-5.6c7.9-1.5,8.9-1,8.1,5c-1-1.3-1.6-2.2-2.3-3.1c-0.6,0.9-1.1,1.7-1.9,3
			C-203.5,83.2-204,82.3-204.5,81.3z"/>
		<path d="M-291,83.9c-2.6,0-3.9,0-5.4,0c0-2.4,0-4.5,0-6.7c0.4-0.2,0.8-0.4,1.3-0.5C-293.8,78.9-292.6,81.1-291,83.9z"/>
		<path d="M-243.6,77.6c1.2,1.9,2.6,3.2,2.4,4.1c-0.2,1.1-1.7,1.9-2.7,2.8c-0.9-1-2.5-1.9-2.6-3C-246.6,80.6-245.1,79.5-243.6,77.6z
			"/>
		<path d="M-235.6,82.3c-0.1,0.2-0.4,0.9-1.3,2.8c-0.1-2.7-0.2-4.1-0.3-5.4c6.6-1.4,6.9-1.2,7,4.6
			C-232.1,83.6-233.8,82.9-235.6,82.3z"/>
		<path d="M436.4,83.9c0-1.9,0-3.7,0-5.6c5.9-0.1,11.7,4.9,17.5-2c0.6,2.7,1.1,4.5,1.6,7c3-7.5,9.3-1.7,13.4-4.7
			c0.9,2.1,1.6,3.5,2.6,5.7c-6.9-1.2-13.8,1.7-19.9-1.8c-0.7,0.4-1.7,1.6-2.6,1.6c-2.2-0.1-4.4-0.7-7-1.2c0.2-0.4-0.2,0.4-0.7,1.2
			c-0.6-0.8-1.2-1.6-1.8-2.4c-0.5,0.7-1.1,1.7-1.8,2.7C437.3,84.2,436.9,84,436.4,83.9z"/>
		<path d="M358.9,78.1c0,1.4,0,3.5,0,6.4c-2.2-0.7-3.9-1.3-5.7-1.9c0,0.3,0.1,0.6,0.1,0.9c-5,0-10.1,0-15,0c0-1.7,0-3.7,0-6.6
			c1.8,1.6,3,2.6,4.1,3.6c2.3-0.9,3.6-7.2,7-0.8C350,80.5,355.4,78.7,358.9,78.1z"/>
		<path d="M418.2,81.3c-0.4,0.9-1,1.9-1.9,3.8c-0.7-2.4-1.5-3.8-1.3-5c0.1-0.8,1.9-1.6,3-1.7c2.6-0.2,5.2-0.1,7.7-1.1
			c1.3,0.6,2.9,0.9,4,1.7c0.9,0.7,1.6,1.9,1.8,3.1c0.1,0.5-1.1,1.8-1.8,1.9c-3.1,0.2-6.3,0.2-9.4-0.1
			C419.5,83.9,418.9,82.2,418.2,81.3z"/>
		<path d="M384.1,83.7c0-1.7,0-3.3,0-4.9c3.2,0.3,6.2,0.5,9.8,0.8c0.2,0.9,0.5,2.2,1,4.1C391,83.7,387.6,83.7,384.1,83.7z"/>
		<path d="M380,78.4c0,1.2,0,3.1,0,5.3c-2.8,0.2-5.4,0.5-8,0.3c-0.8-0.1-1.5-1.6-2.2-2.5c1-0.8,1.9-2,3-2.3
			C374.9,78.7,377.2,78.7,380,78.4z"/>
		<path d="M395.9,84c-0.1-2.1-0.3-4-0.4-6.4c3.8,1.3,6.7,2.2,9.6,3.2c-0.1,0.8-0.1,1.5-0.2,2.3C402.1,83.3,399.4,83.6,395.9,84z"/>
		<path d="M490.1-177.4c0-2.6,0-4,0-5.5c2.8-0.2,5.5-0.6,8-0.3c1,0.1,2.5,1.9,2.5,2.8c0,0.9-2,2.7-2.7,2.5c-2.1-0.6-4-1.9-6.4-3.2
			C491.5-180.8,491-179.6,490.1-177.4z"/>
		<path d="M488-183.8c-0.9,0-1.7,0.1-2.3,0.1c0.9,1.7,1.9,3.4,2.8,5.1c-1.5,0.3-3,0.6-4.5,0.9c0-0.4-0.1-0.9-0.1-1.3
			c0.9,0,1.8,0,2.9,0c-1-1.8-1.9-3.4-2.9-5.1c1.3-0.3,2.6-0.6,3.9-0.9C487.9-184.6,488-184.2,488-183.8z"/>
	</g>
</g>
<rect x="-355" class="st1" width="245" height="105.3"/>
<rect x="294" y="-4.2" class="st2" width="273" height="142"/>
<text transform="matrix(1 0 0 1 314.9473 14.1797)"><tspan x="0" y="0" style="font-family:'BellMT'; font-size:18px;">The Bauhaus movement </tspan><tspan x="0" y="21.6" style="font-family:'BellMT'; font-size:18px;">emphasized </tspan><tspan x="89.3" y="21.6" style="fill:#FD8D85; font-family:'BellMT'; font-size:18px;">functionality,</tspan><tspan x="186.6" y="21.6" style="font-family:'BellMT'; font-size:18px;"> aiming</tspan><tspan x="0" y="43.2" style="font-family:'BellMT'; font-size:18px;"> to merge artistic design with </tspan><tspan x="0" y="64.8" style="font-family:'BellMT'; font-size:18px;">industrial mass production to </tspan><tspan x="0" y="86.4" style="font-family:'BellMT'; font-size:18px;">create functional, </tspan><tspan x="130.5" y="86.4" style="fill:#FD8D85; font-family:'BellMT'; font-size:18px;">aesthetically</tspan><tspan x="221.8" y="86.4" style="font-family:'BellMT'; font-size:18px;"> </tspan><tspan x="0" y="108" style="font-family:'BellMT'; font-size:18px;">pleasing objects accessible to all.</tspan></text>
<rect x="-318" y="19" style="fill:none;" width="208" height="93"/>
<text transform="matrix(1 0 0 1 -318 33.0278)"><tspan x="0" y="0" style="font-family:'BellMT'; font-size:21px;">Origin: Polish</tspan><tspan x="0" y="25.2" style="font-family:'BellMT'; font-size:21px;">Definition: Fun, Dance, </tspan><tspan x="0" y="50.4" style="font-family:'BellMT'; font-size:21px;">or Amusement</tspan></text>
<rect x="-355" y="-199" class="st3" width="896" height="67"/>
<text transform="matrix(0.9939 0 0 1 -53.7344 -157.0879)" style="font-family:'Roboto-Black'; font-size:48.2948px;">[Fun]ctionalism</text>
</svg>
